<svg id="Layer_1" data-name="Layer 1" xmlns="http://www.w3.org/2000/svg" xmlns:xlink="http://www.w3.org/1999/xlink" viewBox="0 0 1366 768"><defs><style>.cls-1{fill:url(#linear-gradient);}.cls-2{fill:url(#linear-gradient-2);}.cls-3{fill:url(#linear-gradient-3);}.cls-10,.cls-11,.cls-12,.cls-13,.cls-14,.cls-172,.cls-173,.cls-174,.cls-175,.cls-176,.cls-177,.cls-178,.cls-179,.cls-180,.cls-181,.cls-182,.cls-183,.cls-184,.cls-185,.cls-186,.cls-187,.cls-4,.cls-7,.cls-8,.cls-9{fill:none;stroke-miterlimit:10;}.cls-4{stroke:url(#linear-gradient-4);}.cls-5{fill:#353535;opacity:0.42;}.cls-6{fill:#4d4d4d;opacity:0.28;}.cls-10,.cls-11,.cls-12,.cls-13,.cls-14,.cls-172,.cls-173,.cls-174,.cls-175,.cls-176,.cls-177,.cls-178,.cls-179,.cls-180,.cls-181,.cls-182,.cls-183,.cls-184,.cls-185,.cls-187,.cls-7,.cls-8,.cls-9{stroke-width:2px;}.cls-7{stroke:url(#linear-gradient-5);}.cls-8{stroke:url(#linear-gradient-6);}.cls-9{stroke:url(#linear-gradient-7);}.cls-10{stroke:url(#linear-gradient-8);}.cls-11{stroke:url(#linear-gradient-9);}.cls-12{stroke:url(#linear-gradient-10);}.cls-13{stroke:url(#linear-gradient-11);}.cls-14{stroke:url(#linear-gradient-12);}.cls-15{fill:url(#linear-gradient-13);}.cls-16{fill:url(#linear-gradient-14);}.cls-17{fill:url(#linear-gradient-15);}.cls-18{fill:url(#linear-gradient-16);}.cls-19{fill:url(#linear-gradient-17);}.cls-20{fill:url(#linear-gradient-18);}.cls-21{fill:url(#linear-gradient-19);}.cls-22{fill:url(#linear-gradient-20);}.cls-23{fill:url(#linear-gradient-21);}.cls-24{fill:url(#linear-gradient-22);}.cls-25{fill:url(#linear-gradient-23);}.cls-26{fill:url(#linear-gradient-24);}.cls-27{fill:url(#linear-gradient-25);}.cls-28{fill:url(#linear-gradient-26);}.cls-29{fill:url(#linear-gradient-27);}.cls-30{fill:url(#linear-gradient-28);}.cls-31{fill:url(#linear-gradient-29);}.cls-32{fill:url(#linear-gradient-30);}.cls-33{fill:url(#linear-gradient-31);}.cls-34{fill:url(#linear-gradient-32);}.cls-35{fill:url(#linear-gradient-33);}.cls-36{fill:url(#linear-gradient-34);}.cls-37{fill:url(#linear-gradient-35);}.cls-38{fill:url(#linear-gradient-36);}.cls-39{fill:url(#linear-gradient-37);}.cls-40{fill:url(#linear-gradient-38);}.cls-41{fill:url(#linear-gradient-39);}.cls-42{fill:url(#linear-gradient-40);}.cls-43{fill:url(#linear-gradient-41);}.cls-44{fill:url(#linear-gradient-42);}.cls-45{fill:url(#linear-gradient-43);}.cls-46{fill:url(#linear-gradient-44);}.cls-47{fill:url(#linear-gradient-45);}.cls-48{fill:url(#linear-gradient-46);}.cls-49{fill:url(#linear-gradient-47);}.cls-50{fill:url(#linear-gradient-48);}.cls-51{fill:url(#linear-gradient-49);}.cls-52{fill:url(#linear-gradient-50);}.cls-53{fill:url(#linear-gradient-51);}.cls-54{fill:url(#linear-gradient-52);}.cls-55{fill:url(#linear-gradient-53);}.cls-56{fill:url(#linear-gradient-54);}.cls-57{fill:url(#linear-gradient-55);}.cls-58{fill:url(#linear-gradient-56);}.cls-59{fill:url(#linear-gradient-57);}.cls-60{fill:url(#linear-gradient-58);}.cls-61{fill:url(#linear-gradient-59);}.cls-62{fill:url(#linear-gradient-60);}.cls-63{fill:url(#linear-gradient-61);}.cls-64{fill:url(#linear-gradient-62);}.cls-65{fill:url(#linear-gradient-63);}.cls-66{fill:url(#linear-gradient-64);}.cls-67{fill:url(#linear-gradient-65);}.cls-68{fill:url(#linear-gradient-66);}.cls-69{fill:url(#linear-gradient-67);}.cls-70{fill:url(#linear-gradient-68);}.cls-71{fill:url(#linear-gradient-69);}.cls-72{fill:url(#linear-gradient-70);}.cls-73{fill:url(#linear-gradient-71);}.cls-74{fill:url(#linear-gradient-72);}.cls-75{fill:url(#linear-gradient-73);}.cls-76{fill:url(#linear-gradient-74);}.cls-77{fill:url(#linear-gradient-75);}.cls-78{fill:url(#linear-gradient-76);}.cls-79{fill:url(#linear-gradient-77);}.cls-80{fill:url(#linear-gradient-78);}.cls-81{fill:url(#linear-gradient-79);}.cls-82{fill:url(#linear-gradient-80);}.cls-83{fill:url(#linear-gradient-81);}.cls-84{fill:url(#linear-gradient-82);}.cls-85{fill:url(#linear-gradient-83);}.cls-86{fill:url(#linear-gradient-84);}.cls-87{fill:url(#linear-gradient-85);}.cls-88{fill:url(#linear-gradient-86);}.cls-89{fill:url(#linear-gradient-87);}.cls-90{fill:url(#linear-gradient-88);}.cls-91{fill:url(#linear-gradient-89);}.cls-92{fill:url(#linear-gradient-90);}.cls-93{fill:url(#linear-gradient-91);}.cls-94{fill:url(#linear-gradient-92);}.cls-95{fill:url(#linear-gradient-93);}.cls-96{fill:url(#linear-gradient-94);}.cls-97{fill:url(#linear-gradient-95);}.cls-98{fill:url(#linear-gradient-96);}.cls-99{fill:url(#linear-gradient-97);}.cls-100{fill:url(#linear-gradient-98);}.cls-101{fill:url(#linear-gradient-99);}.cls-102{fill:url(#linear-gradient-100);}.cls-103{fill:url(#linear-gradient-101);}.cls-104{fill:url(#linear-gradient-102);}.cls-105{fill:url(#linear-gradient-103);}.cls-106{fill:url(#linear-gradient-104);}.cls-107{fill:url(#linear-gradient-105);}.cls-108{fill:url(#linear-gradient-106);}.cls-109{fill:url(#linear-gradient-107);}.cls-110{fill:url(#linear-gradient-108);}.cls-111{fill:url(#linear-gradient-109);}.cls-112{fill:url(#linear-gradient-110);}.cls-113{fill:url(#linear-gradient-111);}.cls-114{fill:url(#linear-gradient-112);}.cls-115{fill:url(#linear-gradient-113);}.cls-116{fill:url(#linear-gradient-114);}.cls-117{fill:url(#linear-gradient-115);}.cls-118{fill:url(#linear-gradient-116);}.cls-119{fill:url(#linear-gradient-117);}.cls-120{fill:url(#linear-gradient-118);}.cls-121{fill:url(#linear-gradient-119);}.cls-122{fill:url(#linear-gradient-120);}.cls-123{fill:url(#linear-gradient-121);}.cls-124{fill:url(#linear-gradient-122);}.cls-125{fill:url(#linear-gradient-123);}.cls-126{fill:url(#linear-gradient-124);}.cls-127{fill:url(#linear-gradient-125);}.cls-128{fill:url(#linear-gradient-126);}.cls-129{fill:url(#linear-gradient-127);}.cls-130{fill:url(#linear-gradient-128);}.cls-131{fill:url(#linear-gradient-129);}.cls-132{fill:url(#linear-gradient-130);}.cls-133{fill:url(#linear-gradient-131);}.cls-134{fill:url(#linear-gradient-132);}.cls-135{fill:url(#linear-gradient-133);}.cls-136{fill:url(#linear-gradient-134);}.cls-137{fill:url(#linear-gradient-135);}.cls-138{fill:url(#linear-gradient-136);}.cls-139{fill:url(#linear-gradient-137);}.cls-140{fill:url(#linear-gradient-138);}.cls-141{fill:url(#linear-gradient-139);}.cls-142{fill:url(#linear-gradient-140);}.cls-143{fill:url(#linear-gradient-141);}.cls-144{fill:url(#linear-gradient-142);}.cls-145{fill:url(#linear-gradient-143);}.cls-146{fill:url(#linear-gradient-144);}.cls-147{fill:url(#linear-gradient-145);}.cls-148{fill:url(#linear-gradient-146);}.cls-149{fill:url(#linear-gradient-147);}.cls-150{fill:url(#linear-gradient-148);}.cls-151{fill:url(#linear-gradient-149);}.cls-152{fill:url(#linear-gradient-150);}.cls-153{fill:url(#linear-gradient-151);}.cls-154{fill:url(#linear-gradient-152);}.cls-155{fill:url(#linear-gradient-153);}.cls-156{fill:url(#linear-gradient-154);}.cls-157{fill:url(#linear-gradient-155);}.cls-158{fill:url(#linear-gradient-156);}.cls-159{fill:url(#linear-gradient-157);}.cls-160{fill:url(#linear-gradient-158);}.cls-161{fill:url(#linear-gradient-159);}.cls-162{fill:url(#linear-gradient-160);}.cls-163{fill:url(#linear-gradient-161);}.cls-164{fill:url(#linear-gradient-162);}.cls-165{fill:url(#linear-gradient-163);}.cls-166{fill:url(#linear-gradient-164);}.cls-167{fill:url(#linear-gradient-165);}.cls-168{fill:url(#linear-gradient-166);}.cls-169{fill:url(#linear-gradient-167);}.cls-170{fill:url(#linear-gradient-168);}.cls-171{fill:url(#linear-gradient-169);}.cls-172{stroke:url(#linear-gradient-170);}.cls-173{stroke:url(#linear-gradient-171);}.cls-174{stroke:url(#linear-gradient-172);}.cls-175{stroke:url(#linear-gradient-173);}.cls-176{stroke:url(#linear-gradient-174);}.cls-177{stroke:url(#linear-gradient-175);}.cls-178{stroke:url(#linear-gradient-176);}.cls-179{stroke:url(#linear-gradient-177);}.cls-180{stroke:url(#linear-gradient-178);}.cls-181{stroke:url(#linear-gradient-179);}.cls-182{stroke:url(#linear-gradient-180);}.cls-183{stroke:url(#linear-gradient-181);}.cls-184{stroke:url(#linear-gradient-182);}.cls-185{stroke:url(#linear-gradient-183);}.cls-186{stroke:url(#linear-gradient-184);}.cls-187{stroke:url(#linear-gradient-185);}</style><linearGradient id="linear-gradient" x1="754.63" y1="5.48" x2="758" y2="5.48" gradientUnits="userSpaceOnUse"><stop offset="0.04" stop-color="gray"/><stop offset="0.51" stop-color="#fff"/><stop offset="0.58" stop-color="#e8e8e8"/><stop offset="0.78" stop-color="#b0b0b0"/><stop offset="0.92" stop-color="#8d8d8d"/><stop offset="1" stop-color="gray"/></linearGradient><linearGradient id="linear-gradient-2" x1="758.07" y1="8.48" x2="759.73" y2="8.48" xlink:href="#linear-gradient"/><linearGradient id="linear-gradient-3" x1="756.99" y1="13.48" x2="758.65" y2="13.48" xlink:href="#linear-gradient"/><linearGradient id="linear-gradient-4" x1="118.04" y1="184.58" x2="144.36" y2="214.87" xlink:href="#linear-gradient"/><linearGradient id="linear-gradient-5" x1="226.3" y1="177.15" x2="605.51" y2="177.15" gradientUnits="userSpaceOnUse"><stop offset="0.02" stop-color="#666"/><stop offset="0.11" stop-color="#494949"/><stop offset="0.19" stop-color="#363636"/><stop offset="0.24" stop-color="#2f2f2f"/><stop offset="0.27" stop-color="#343434"/><stop offset="0.31" stop-color="#424242"/><stop offset="0.34" stop-color="#5a5a5a"/><stop offset="0.38" stop-color="#7b7b7b"/><stop offset="0.42" stop-color="#a6a6a6"/><stop offset="0.47" stop-color="#dadada"/><stop offset="0.49" stop-color="#fff"/><stop offset="0.5" stop-color="#e8e8e8"/><stop offset="0.52" stop-color="#c4c4c4"/><stop offset="0.54" stop-color="#a4a4a4"/><stop offset="0.56" stop-color="#888"/><stop offset="0.59" stop-color="#727272"/><stop offset="0.62" stop-color="#616161"/><stop offset="0.66" stop-color="#565656"/><stop offset="0.71" stop-color="#4f4f4f"/><stop offset="0.86" stop-color="#4d4d4d"/><stop offset="0.87" stop-color="#535353"/><stop offset="0.9" stop-color="#656565"/><stop offset="0.92" stop-color="#828282"/><stop offset="0.95" stop-color="#aaa"/><stop offset="0.98" stop-color="#ddd"/><stop offset="1" stop-color="#fff"/></linearGradient><linearGradient id="linear-gradient-6" x1="310.32" y1="262.01" x2="597.51" y2="262.01" xlink:href="#linear-gradient-5"/><linearGradient id="linear-gradient-7" x1="298.76" y1="247.5" x2="398.83" y2="247.5" xlink:href="#linear-gradient-5"/><linearGradient id="linear-gradient-8" x1="587.86" y1="313.29" x2="640.04" y2="313.29" xlink:href="#linear-gradient-5"/><linearGradient id="linear-gradient-9" x1="432.13" y1="303.74" x2="475.63" y2="303.74" xlink:href="#linear-gradient-5"/><linearGradient id="linear-gradient-10" x1="33.86" y1="170" x2="311.82" y2="170" xlink:href="#linear-gradient-5"/><linearGradient id="linear-gradient-11" x1="47.77" y1="104.88" x2="228.07" y2="104.88" xlink:href="#linear-gradient-5"/><linearGradient id="linear-gradient-12" x1="47.27" y1="239.76" x2="267.06" y2="239.76" xlink:href="#linear-gradient-5"/><linearGradient id="linear-gradient-13" x1="754.29" y1="18.48" x2="757.89" y2="18.48" xlink:href="#linear-gradient"/><linearGradient id="linear-gradient-14" x1="752.21" y1="24.48" x2="755.82" y2="24.48" xlink:href="#linear-gradient"/><linearGradient id="linear-gradient-15" x1="750.12" y1="30.48" x2="753.75" y2="30.48" xlink:href="#linear-gradient"/><linearGradient id="linear-gradient-16" x1="335.55" y1="327.21" x2="337.21" y2="327.21" gradientTransform="translate(472.49 -341.58) rotate(9.46)" xlink:href="#linear-gradient"/><linearGradient id="linear-gradient-17" x1="748.07" y1="42.48" x2="751.47" y2="42.48" xlink:href="#linear-gradient"/><linearGradient id="linear-gradient-18" x1="749.49" y1="48.47" x2="753.14" y2="48.47" xlink:href="#linear-gradient"/><linearGradient id="linear-gradient-19" x1="752.45" y1="54.31" x2="755.55" y2="54.31" xlink:href="#linear-gradient"/><linearGradient id="linear-gradient-20" x1="754.44" y1="60.33" x2="757.37" y2="60.33" xlink:href="#linear-gradient"/><linearGradient id="linear-gradient-21" x1="756.33" y1="66.47" x2="759.83" y2="66.47" xlink:href="#linear-gradient"/><linearGradient id="linear-gradient-22" x1="758.52" y1="72.39" x2="760.9" y2="72.39" xlink:href="#linear-gradient"/><linearGradient id="linear-gradient-23" x1="759.19" y1="78.47" x2="762.66" y2="78.47" xlink:href="#linear-gradient"/><linearGradient id="linear-gradient-24" x1="760.16" y1="84.48" x2="763.53" y2="84.48" xlink:href="#linear-gradient"/><linearGradient id="linear-gradient-25" x1="1680.42" y1="-264.13" x2="1683.1" y2="-264.13" gradientTransform="translate(-749.19 874.48) rotate(-18.49)" xlink:href="#linear-gradient"/><linearGradient id="linear-gradient-26" x1="757.26" y1="96.48" x2="761.38" y2="96.48" xlink:href="#linear-gradient"/><linearGradient id="linear-gradient-27" x1="1698.25" y1="-257.65" x2="1702.69" y2="-257.65" gradientTransform="translate(-767.51 897.21) rotate(-18.94)" xlink:href="#linear-gradient"/><linearGradient id="linear-gradient-28" x1="202.34" y1="516.64" x2="205.77" y2="516.64" gradientTransform="translate(668.91 -442.23) rotate(12.83)" xlink:href="#linear-gradient"/><linearGradient id="linear-gradient-29" x1="206.21" y1="513.45" x2="208.71" y2="513.45" gradientTransform="translate(659 -435.63) rotate(12.63)" xlink:href="#linear-gradient"/><linearGradient id="linear-gradient-30" x1="150.2" y1="567.55" x2="153.83" y2="567.55" gradientTransform="translate(734.41 -471.98) rotate(13.96)" xlink:href="#linear-gradient"/><linearGradient id="linear-gradient-31" x1="743.04" y1="121.62" x2="745.09" y2="121.62" xlink:href="#linear-gradient"/><linearGradient id="linear-gradient-32" x1="601.82" y1="212.21" x2="605.47" y2="212.21" gradientTransform="matrix(1, 0.05, -0.05, 1, 150.19, -116.16)" xlink:href="#linear-gradient"/><linearGradient id="linear-gradient-33" x1="-187.54" y1="963.89" x2="-184.16" y2="963.89" gradientTransform="translate(1292.21 -677.95) rotate(23.33)" xlink:href="#linear-gradient"/><linearGradient id="linear-gradient-34" x1="-118.38" y1="875.48" x2="-115.01" y2="875.48" gradientTransform="matrix(0.93, 0.36, -0.36, 0.93, 1162.12, -634.87)" xlink:href="#linear-gradient"/><linearGradient id="linear-gradient-35" x1="-354.75" y1="1222.69" x2="-353.1" y2="1222.69" gradientTransform="translate(1634.39 -754.15) rotate(28.88)" xlink:href="#linear-gradient"/><linearGradient id="linear-gradient-36" x1="150.52" y1="587.66" x2="153.9" y2="587.66" gradientTransform="matrix(0.97, 0.23, -0.23, 0.97, 720.76, -455.49)" xlink:href="#linear-gradient"/><linearGradient id="linear-gradient-37" x1="459.28" y1="330.29" x2="462.65" y2="330.29" gradientTransform="translate(305.38 -218.32) rotate(5.88)" xlink:href="#linear-gradient"/><linearGradient id="linear-gradient-38" x1="-523.39" y1="1525.9" x2="-520.02" y2="1525.9" gradientTransform="translate(2030.87 -788.19) rotate(34.96)" xlink:href="#linear-gradient"/><linearGradient id="linear-gradient-39" x1="-717.79" y1="2089.01" x2="-716.13" y2="2089.01" gradientTransform="translate(2726.77 -763.85) rotate(46.09)" xlink:href="#linear-gradient"/><linearGradient id="linear-gradient-40" x1="-792.88" y1="2498.42" x2="-789.51" y2="2498.42" gradientTransform="translate(3202.12 -667.97) rotate(53.72)" xlink:href="#linear-gradient"/><linearGradient id="linear-gradient-41" x1="-806.04" y1="2567.44" x2="-802.67" y2="2567.44" gradientTransform="translate(3278.74 -638.82) rotate(54.97)" xlink:href="#linear-gradient"/><linearGradient id="linear-gradient-42" x1="-704.8" y1="2018.36" x2="-701.43" y2="2018.36" gradientTransform="translate(2624.73 -769.2) rotate(44.39)" xlink:href="#linear-gradient"/><linearGradient id="linear-gradient-43" x1="-739.46" y1="2147.73" x2="-737.8" y2="2147.73" gradientTransform="translate(2774.46 -749.4) rotate(46.7)" xlink:href="#linear-gradient"/><linearGradient id="linear-gradient-44" x1="1267.03" y1="-69.21" x2="1268.69" y2="-69.21" gradientTransform="translate(-524.43 517.9) rotate(-11.74)" xlink:href="#linear-gradient"/><linearGradient id="linear-gradient-45" x1="-254.42" y1="1065.19" x2="-251.05" y2="1065.19" gradientTransform="translate(1371.06 -669.2) rotate(24.25)" xlink:href="#linear-gradient"/><linearGradient id="linear-gradient-46" x1="-666.7" y1="1879.08" x2="-663.33" y2="1879.08" gradientTransform="translate(2437.02 -772.8) rotate(41.2)" xlink:href="#linear-gradient"/><linearGradient id="linear-gradient-47" x1="-537" y1="1561.42" x2="-535.34" y2="1561.42" gradientTransform="translate(2027.13 -769.17) rotate(34.75)" xlink:href="#linear-gradient"/><linearGradient id="linear-gradient-48" x1="-146.06" y1="927.58" x2="-142.69" y2="927.58" gradientTransform="matrix(0.94, 0.35, -0.35, 0.94, 1153.79, -603.64)" xlink:href="#linear-gradient"/><linearGradient id="linear-gradient-49" x1="1960.99" y1="-188.4" x2="1962.65" y2="-188.4" gradientTransform="translate(-1000.92 1225.16) rotate(-25.17)" xlink:href="#linear-gradient"/><linearGradient id="linear-gradient-50" x1="340.91" y1="466.26" x2="344.28" y2="466.26" gradientTransform="translate(419.59 -283.06) rotate(7.96)" xlink:href="#linear-gradient"/><linearGradient id="linear-gradient-51" x1="-543.78" y1="1589.23" x2="-542.12" y2="1589.23" gradientTransform="translate(2045.19 -763.35) rotate(34.83)" xlink:href="#linear-gradient"/><linearGradient id="linear-gradient-52" x1="-31.64" y1="819.97" x2="-29.99" y2="819.97" gradientTransform="translate(963.05 -536.21) rotate(17.37)" xlink:href="#linear-gradient"/><linearGradient id="linear-gradient-53" x1="204.1" y1="592.7" x2="205.76" y2="592.7" gradientTransform="translate(601.26 -377.98) rotate(11.15)" xlink:href="#linear-gradient"/><linearGradient id="linear-gradient-54" x1="685.31" y1="249.15" x2="688.68" y2="249.15" xlink:href="#linear-gradient"/><linearGradient id="linear-gradient-55" x1="1145.67" y1="35.52" x2="1147.33" y2="35.52" gradientTransform="translate(-449.03 409.55) rotate(-9.51)" xlink:href="#linear-gradient"/><linearGradient id="linear-gradient-56" x1="1613.66" y1="-95.68" x2="1615.32" y2="-95.68" gradientTransform="translate(-809.89 868.42) rotate(-18.62)" xlink:href="#linear-gradient"/><linearGradient id="linear-gradient-57" x1="1632.77" y1="-90.27" x2="1636.14" y2="-90.27" gradientTransform="translate(-825.11 884.54) rotate(-18.92)" xlink:href="#linear-gradient"/><linearGradient id="linear-gradient-58" x1="1408.34" y1="-29.49" x2="1411.71" y2="-29.49" gradientTransform="translate(-662.97 658.32) rotate(-14.57)" xlink:href="#linear-gradient"/><linearGradient id="linear-gradient-59" x1="695.06" y1="281.15" x2="696.72" y2="281.15" xlink:href="#linear-gradient"/><linearGradient id="linear-gradient-60" x1="-5.3" y1="849.1" x2="-3.64" y2="849.1" gradientTransform="translate(943.38 -524.45) rotate(16.79)" xlink:href="#linear-gradient"/><linearGradient id="linear-gradient-61" x1="2280.63" y1="-128.85" x2="2282.29" y2="-128.85" gradientTransform="translate(-1194 1579.35) rotate(-31.02)" xlink:href="#linear-gradient"/><linearGradient id="linear-gradient-62" x1="694.31" y1="299.15" x2="697.68" y2="299.15" xlink:href="#linear-gradient"/><linearGradient id="linear-gradient-63" x1="965.97" y1="163.82" x2="969.34" y2="163.82" gradientTransform="translate(-283.25 238.64) rotate(-5.72)" xlink:href="#linear-gradient"/><linearGradient id="linear-gradient-64" x1="1395.47" y1="11.34" x2="1397.13" y2="11.34" gradientTransform="translate(-658.7 643.58) rotate(-14.24)" xlink:href="#linear-gradient"/><linearGradient id="linear-gradient-65" x1="1292.36" y1="50.81" x2="1294.02" y2="50.81" gradientTransform="translate(-575.37 541.36) rotate(-12.18)" xlink:href="#linear-gradient"/><linearGradient id="linear-gradient-66" x1="1341.65" y1="42.77" x2="1345.02" y2="42.77" gradientTransform="translate(-617.54 589.07) rotate(-13.15)" xlink:href="#linear-gradient"/><linearGradient id="linear-gradient-67" x1="1246.56" y1="80.99" x2="1249.94" y2="80.99" gradientTransform="translate(-537.86 496.13) rotate(-11.24)" xlink:href="#linear-gradient"/><linearGradient id="linear-gradient-68" x1="1064.7" y1="157.39" x2="1066.36" y2="157.39" gradientTransform="translate(-373.16 322.23) rotate(-7.56)" xlink:href="#linear-gradient"/><linearGradient id="linear-gradient-69" x1="702.38" y1="344.15" x2="705.75" y2="344.15" xlink:href="#linear-gradient"/><linearGradient id="linear-gradient-70" x1="404.03" y1="549.24" x2="407.4" y2="549.24" gradientTransform="translate(363.87 -241.53) rotate(6.68)" xlink:href="#linear-gradient"/><linearGradient id="linear-gradient-71" x1="-26.69" y1="947.31" x2="-23.32" y2="947.31" gradientTransform="translate(1010.26 -538.57) rotate(17.54)" xlink:href="#linear-gradient"/><linearGradient id="linear-gradient-72" x1="692.15" y1="368.15" x2="695.52" y2="368.15" xlink:href="#linear-gradient"/><linearGradient id="linear-gradient-73" x1="-581.6" y1="1816.74" x2="-578.23" y2="1816.74" gradientTransform="matrix(0.8, 0.6, -0.6, 0.8, 2248.88, -745.89)" xlink:href="#linear-gradient"/><linearGradient id="linear-gradient-74" x1="-370.88" y1="1411.1" x2="-367.51" y2="1411.1" gradientTransform="translate(1680.7 -698.83) rotate(28)" xlink:href="#linear-gradient"/><linearGradient id="linear-gradient-75" x1="-598.99" y1="1852.5" x2="-597.34" y2="1852.5" gradientTransform="matrix(0.8, 0.6, -0.6, 0.8, 2283, -736.63)" xlink:href="#linear-gradient"/><linearGradient id="linear-gradient-76" x1="-592.99" y1="1831.92" x2="-591.33" y2="1831.92" gradientTransform="translate(2250.96 -734.09) rotate(36.63)" xlink:href="#linear-gradient"/><linearGradient id="linear-gradient-77" x1="-361.08" y1="1391.13" x2="-359.42" y2="1391.13" gradientTransform="translate(1636.25 -683.62) rotate(27.21)" xlink:href="#linear-gradient"/><linearGradient id="linear-gradient-78" x1="-182.55" y1="1141.08" x2="-179.18" y2="1141.08" gradientTransform="translate(1261.04 -602) rotate(21.36)" xlink:href="#linear-gradient"/><linearGradient id="linear-gradient-79" x1="-5.63" y1="939.61" x2="-3.97" y2="939.61" gradientTransform="translate(940.87 -499.98) rotate(16.23)" xlink:href="#linear-gradient"/><linearGradient id="linear-gradient-80" x1="672.68" y1="406.83" x2="674.34" y2="406.83" xlink:href="#linear-gradient"/><linearGradient id="linear-gradient-81" x1="672.6" y1="412.83" x2="674.26" y2="412.83" xlink:href="#linear-gradient"/><linearGradient id="linear-gradient-82" x1="1573.19" y1="68.12" x2="1576.56" y2="68.12" gradientTransform="translate(-843.61 844.02) rotate(-18.13)" xlink:href="#linear-gradient"/><linearGradient id="linear-gradient-83" x1="1219.86" y1="173.87" x2="1221.52" y2="173.87" gradientTransform="translate(-553.34 489.87) rotate(-11.18)" xlink:href="#linear-gradient"/><linearGradient id="linear-gradient-84" x1="678.99" y1="429.83" x2="680.65" y2="429.83" xlink:href="#linear-gradient"/><linearGradient id="linear-gradient-85" x1="677.39" y1="435.83" x2="680.76" y2="435.83" xlink:href="#linear-gradient"/><linearGradient id="linear-gradient-86" x1="678.83" y1="441.83" x2="680.49" y2="441.83" xlink:href="#linear-gradient"/><linearGradient id="linear-gradient-87" x1="649.72" y1="464.12" x2="653.1" y2="464.12" gradientTransform="translate(32.38 -23.06) rotate(0.6)" xlink:href="#linear-gradient"/><linearGradient id="linear-gradient-88" x1="100.21" y1="889.39" x2="103.58" y2="889.39" gradientTransform="translate(786.66 -434.74) rotate(13.52)" xlink:href="#linear-gradient"/><linearGradient id="linear-gradient-89" x1="190.13" y1="811.52" x2="191.79" y2="811.52" gradientTransform="translate(646.92 -373.33) rotate(11.21)" xlink:href="#linear-gradient"/><linearGradient id="linear-gradient-90" x1="463.57" y1="600.63" x2="466.94" y2="600.63" gradientTransform="translate(260.46 -170.66) rotate(4.67)" xlink:href="#linear-gradient"/><linearGradient id="linear-gradient-91" x1="673.06" y1="472.83" x2="674.72" y2="472.83" xlink:href="#linear-gradient"/><linearGradient id="linear-gradient-92" x1="674.99" y1="478.83" x2="676.64" y2="478.83" xlink:href="#linear-gradient"/><linearGradient id="linear-gradient-93" x1="675.91" y1="484.83" x2="677.57" y2="484.83" xlink:href="#linear-gradient"/><linearGradient id="linear-gradient-94" x1="674.31" y1="490.83" x2="677.68" y2="490.83" xlink:href="#linear-gradient"/><linearGradient id="linear-gradient-95" x1="351.71" y1="715.33" x2="353.37" y2="715.33" gradientTransform="translate(417.84 -257.52) rotate(7.3)" xlink:href="#linear-gradient"/><linearGradient id="linear-gradient-96" x1="198.06" y1="845.52" x2="201.43" y2="845.52" gradientTransform="translate(639.47 -365.24) rotate(10.96)" xlink:href="#linear-gradient"/><linearGradient id="linear-gradient-97" x1="672.07" y1="508.83" x2="675.45" y2="508.83" xlink:href="#linear-gradient"/><linearGradient id="linear-gradient-98" x1="671.62" y1="514.83" x2="674.99" y2="514.83" xlink:href="#linear-gradient"/><linearGradient id="linear-gradient-99" x1="-205.84" y1="1289.78" x2="-204.18" y2="1289.78" gradientTransform="translate(1341.88 -599.58) rotate(21.89)" xlink:href="#linear-gradient"/><linearGradient id="linear-gradient-100" x1="-419.48" y1="1605.39" x2="-417.82" y2="1605.39" gradientTransform="translate(1811.38 -677.12) rotate(28.91)" xlink:href="#linear-gradient"/><linearGradient id="linear-gradient-101" x1="-160.62" y1="1237.19" x2="-157.25" y2="1237.19" gradientTransform="translate(1245.89 -572.57) rotate(20.38)" xlink:href="#linear-gradient"/><linearGradient id="linear-gradient-102" x1="245.45" y1="832.11" x2="247.11" y2="832.11" gradientTransform="translate(560.06 -323.64) rotate(9.56)" xlink:href="#linear-gradient"/><linearGradient id="linear-gradient-103" x1="-559.41" y1="1868.16" x2="-556.04" y2="1868.16" gradientTransform="translate(2170.46 -691) rotate(34.12)" xlink:href="#linear-gradient"/><linearGradient id="linear-gradient-104" x1="-259" y1="1368.64" x2="-255.63" y2="1368.64" gradientTransform="translate(1430.05 -609.41) rotate(23.08)" xlink:href="#linear-gradient"/><linearGradient id="linear-gradient-105" x1="-533.31" y1="1820.84" x2="-529.94" y2="1820.84" gradientTransform="matrix(0.84, 0.54, -0.54, 0.84, 2087.4, -687.25)" xlink:href="#linear-gradient"/><linearGradient id="linear-gradient-106" x1="-579.72" y1="1902.51" x2="-576.35" y2="1902.51" gradientTransform="matrix(0.82, 0.57, -0.57, 0.82, 2203.85, -681.48)" xlink:href="#linear-gradient"/><linearGradient id="linear-gradient-107" x1="-644.21" y1="2045.61" x2="-640.84" y2="2045.61" gradientTransform="translate(2397.01 -673.29) rotate(37.3)" xlink:href="#linear-gradient"/><linearGradient id="linear-gradient-108" x1="-757.58" y1="2367.98" x2="-755.92" y2="2367.98" gradientTransform="translate(2821.86 -625.24) rotate(43.55)" xlink:href="#linear-gradient"/><linearGradient id="linear-gradient-109" x1="-57.24" y1="1131.59" x2="-53.87" y2="1131.59" gradientTransform="translate(1017.04 -492.54) rotate(16.68)" xlink:href="#linear-gradient"/><linearGradient id="linear-gradient-110" x1="636.32" y1="581.51" x2="639.69" y2="581.51" xlink:href="#linear-gradient"/><linearGradient id="linear-gradient-111" x1="636.24" y1="587.51" x2="639.61" y2="587.51" xlink:href="#linear-gradient"/><linearGradient id="linear-gradient-112" x1="636.16" y1="593.51" x2="639.53" y2="593.51" xlink:href="#linear-gradient"/><linearGradient id="linear-gradient-113" x1="636.08" y1="599.51" x2="639.45" y2="599.51" xlink:href="#linear-gradient"/><linearGradient id="linear-gradient-114" x1="635.63" y1="605.51" x2="639" y2="605.51" xlink:href="#linear-gradient"/><linearGradient id="linear-gradient-115" x1="119.91" y1="990.23" x2="121.57" y2="990.23" gradientTransform="translate(723.04 -382.24) rotate(11.96)" xlink:href="#linear-gradient"/><linearGradient id="linear-gradient-116" x1="633.47" y1="617.51" x2="636.84" y2="617.51" xlink:href="#linear-gradient"/><linearGradient id="linear-gradient-117" x1="322.64" y1="832.87" x2="324.3" y2="832.87" gradientTransform="matrix(0.99, 0.12, -0.12, 0.99, 413.94, -242.52)" xlink:href="#linear-gradient"/><linearGradient id="linear-gradient-118" x1="632.31" y1="629.51" x2="635.68" y2="629.51" xlink:href="#linear-gradient"/><linearGradient id="linear-gradient-119" x1="633.75" y1="635.5" x2="635.41" y2="635.5" xlink:href="#linear-gradient"/><linearGradient id="linear-gradient-120" x1="632.16" y1="641.51" x2="635.53" y2="641.51" xlink:href="#linear-gradient"/><linearGradient id="linear-gradient-121" x1="692.88" y1="614.24" x2="694.54" y2="614.24" gradientTransform="translate(-71.55 48.58) rotate(-1.25)" xlink:href="#linear-gradient"/><linearGradient id="linear-gradient-122" x1="817.93" y1="554.38" x2="821.31" y2="554.38" gradientTransform="translate(-219.04 156.02) rotate(-3.89)" xlink:href="#linear-gradient"/><linearGradient id="linear-gradient-123" x1="1209.56" y1="398.2" x2="1211.22" y2="398.2" gradientTransform="translate(-629.31 516.92) rotate(-11.79)" xlink:href="#linear-gradient"/><linearGradient id="linear-gradient-124" x1="1111.81" y1="439.79" x2="1113.46" y2="439.79" gradientTransform="matrix(0.99, -0.17, 0.17, 0.99, -533.57, 422.14)" xlink:href="#linear-gradient"/><linearGradient id="linear-gradient-125" x1="1139.4" y1="436.49" x2="1141.06" y2="436.49" gradientTransform="translate(-560.34 446.81) rotate(-10.34)" xlink:href="#linear-gradient"/><linearGradient id="linear-gradient-126" x1="898.74" y1="541.85" x2="902.12" y2="541.85" gradientTransform="matrix(1, -0.1, 0.1, 1, -306.98, 223.96)" xlink:href="#linear-gradient"/><linearGradient id="linear-gradient-127" x1="640.23" y1="683.51" x2="643.6" y2="683.51" xlink:href="#linear-gradient"/><linearGradient id="linear-gradient-128" x1="1215.3" y1="428.75" x2="1216.96" y2="428.75" gradientTransform="translate(-635.57 518.27) rotate(-11.79)" xlink:href="#linear-gradient"/><linearGradient id="linear-gradient-129" x1="642.59" y1="695.5" x2="644.25" y2="695.5" xlink:href="#linear-gradient"/><linearGradient id="linear-gradient-130" x1="1843.54" y1="-246.91" x2="1846.91" y2="-246.91" gradientTransform="translate(-901.67 1493.53) rotate(-24.25)" xlink:href="#linear-gradient"/><linearGradient id="linear-gradient-131" x1="2805.85" y1="-454.39" x2="2807.51" y2="-454.39" gradientTransform="matrix(0.75, -0.66, 0.66, 0.75, -1125.74, 2709.31)" xlink:href="#linear-gradient"/><linearGradient id="linear-gradient-132" x1="2709.84" y1="-442.47" x2="2711.5" y2="-442.47" gradientTransform="translate(-1119.05 2588.89) rotate(-39.62)" xlink:href="#linear-gradient"/><linearGradient id="linear-gradient-133" x1="2813.21" y1="-443.82" x2="2816.58" y2="-443.82" gradientTransform="matrix(0.75, -0.66, 0.66, 0.75, -1130.8, 2715.72)" xlink:href="#linear-gradient"/><linearGradient id="linear-gradient-134" x1="3026.43" y1="-449.32" x2="3029.8" y2="-449.32" gradientTransform="translate(-1130.31 2986.07) rotate(-44.96)" xlink:href="#linear-gradient"/><linearGradient id="linear-gradient-135" x1="1145.63" y1="155.72" x2="1147.29" y2="155.72" gradientTransform="translate(-457.38 581.23) rotate(-10.15)" xlink:href="#linear-gradient"/><linearGradient id="linear-gradient-136" x1="697.15" y1="538.51" x2="700.52" y2="538.51" xlink:href="#linear-gradient"/><linearGradient id="linear-gradient-137" x1="576.74" y1="672.3" x2="578.4" y2="672.3" gradientTransform="translate(157.33 -157.49) rotate(3.04)" xlink:href="#linear-gradient"/><linearGradient id="linear-gradient-138" x1="695.63" y1="550.18" x2="699" y2="550.18" xlink:href="#linear-gradient"/><linearGradient id="linear-gradient-139" x1="1499.79" y1="-37.17" x2="1501.45" y2="-37.17" gradientTransform="matrix(0.95, -0.3, 0.3, 0.95, -723.35, 1039.2)" xlink:href="#linear-gradient"/><linearGradient id="linear-gradient-140" x1="1324.26" y1="69.65" x2="1325.92" y2="69.65" gradientTransform="translate(-603.58 810.93) rotate(-13.81)" xlink:href="#linear-gradient"/><linearGradient id="linear-gradient-141" x1="1038.15" y1="272.52" x2="1039.81" y2="272.52" gradientTransform="translate(-364.55 438.72) rotate(-7.77)" xlink:href="#linear-gradient"/><linearGradient id="linear-gradient-142" x1="700.32" y1="574.18" x2="703.69" y2="574.18" xlink:href="#linear-gradient"/><linearGradient id="linear-gradient-143" x1="701.24" y1="580.18" x2="704.61" y2="580.18" xlink:href="#linear-gradient"/><linearGradient id="linear-gradient-144" x1="1558.07" y1="-34.04" x2="1559.73" y2="-34.04" gradientTransform="translate(-765.14 1110) rotate(-18.38)" xlink:href="#linear-gradient"/><linearGradient id="linear-gradient-145" x1="1549.53" y1="-23.58" x2="1552.9" y2="-23.58" gradientTransform="translate(-759.84 1097.04) rotate(-18.16)" xlink:href="#linear-gradient"/><linearGradient id="linear-gradient-146" x1="1826.68" y1="-144" x2="1830.05" y2="-144" gradientTransform="translate(-910.78 1453.92) rotate(-23.38)" xlink:href="#linear-gradient"/><linearGradient id="linear-gradient-147" x1="2192.34" y1="-260.63" x2="2194" y2="-260.63" gradientTransform="matrix(0.87, -0.5, 0.5, 0.87, -1056.69, 1922.73)" xlink:href="#linear-gradient"/><linearGradient id="linear-gradient-148" x1="3728.08" y1="-303.99" x2="3729.74" y2="-303.99" gradientTransform="matrix(0.55, -0.84, 0.84, 0.55, -1073.46, 3890.31)" xlink:href="#linear-gradient"/><linearGradient id="linear-gradient-149" x1="3245.22" y1="-360.73" x2="3246.88" y2="-360.73" gradientTransform="translate(-1171.19 3270.72) rotate(-48.24)" xlink:href="#linear-gradient"/><linearGradient id="linear-gradient-150" x1="979.94" y1="381.05" x2="983.31" y2="381.05" gradientTransform="translate(-292.17 338.16) rotate(-6.02)" xlink:href="#linear-gradient"/><linearGradient id="linear-gradient-151" x1="985" y1="383.73" x2="988.37" y2="383.73" gradientTransform="translate(-297.01 343.67) rotate(-6.11)" xlink:href="#linear-gradient"/><linearGradient id="linear-gradient-152" x1="1091.34" y1="307.86" x2="1093" y2="307.86" gradientTransform="translate(-398.9 480) rotate(-8.39)" xlink:href="#linear-gradient"/><linearGradient id="linear-gradient-153" x1="1313.28" y1="162.33" x2="1314.94" y2="162.33" gradientTransform="matrix(0.97, -0.23, 0.23, 0.97, -589.44, 769.38)" xlink:href="#linear-gradient"/><linearGradient id="linear-gradient-154" x1="1677.01" y1="-28.91" x2="1680.38" y2="-28.91" gradientTransform="translate(-836.3 1243.6) rotate(-20.19)" xlink:href="#linear-gradient"/><linearGradient id="linear-gradient-155" x1="2068.91" y1="-175.89" x2="2072.28" y2="-175.89" gradientTransform="translate(-1024.68 1751.94) rotate(-27.42)" xlink:href="#linear-gradient"/><linearGradient id="linear-gradient-156" x1="2128.65" y1="-188.93" x2="2132.02" y2="-188.93" gradientTransform="translate(-1047.89 1828.2) rotate(-28.45)" xlink:href="#linear-gradient"/><linearGradient id="linear-gradient-157" x1="2209.51" y1="-207.11" x2="2212.88" y2="-207.11" gradientTransform="translate(-1075.91 1932.07) rotate(-29.84)" xlink:href="#linear-gradient"/><linearGradient id="linear-gradient-158" x1="3557" y1="-285.75" x2="3558.66" y2="-285.75" gradientTransform="translate(-1153.79 3680.34) rotate(-53.29)" xlink:href="#linear-gradient"/><linearGradient id="linear-gradient-159" x1="2251.77" y1="-205.37" x2="2253.43" y2="-205.37" gradientTransform="matrix(0.86, -0.51, 0.51, 0.86, -1090.73, 1979.14)" xlink:href="#linear-gradient"/><linearGradient id="linear-gradient-160" x1="933.94" y1="493.24" x2="937.31" y2="493.24" gradientTransform="translate(-220.84 246.11) rotate(-4.4)" xlink:href="#linear-gradient"/><linearGradient id="linear-gradient-161" x1="1230.39" y1="273.51" x2="1232.05" y2="273.51" gradientTransform="translate(-509.25 634.68) rotate(-10.82)" xlink:href="#linear-gradient"/><linearGradient id="linear-gradient-162" x1="1464.04" y1="133.67" x2="1467.41" y2="133.67" gradientTransform="translate(-695.43 943.32) rotate(-15.59)" xlink:href="#linear-gradient"/><linearGradient id="linear-gradient-163" x1="1282.62" y1="251.64" x2="1285.99" y2="251.64" gradientTransform="matrix(0.98, -0.21, 0.21, 0.98, -554.38, 702.06)" xlink:href="#linear-gradient"/><linearGradient id="linear-gradient-164" x1="965.19" y1="495.13" x2="968.56" y2="495.13" gradientTransform="translate(-251.1 280.97) rotate(-4.99)" xlink:href="#linear-gradient"/><linearGradient id="linear-gradient-165" x1="754.38" y1="696.18" x2="757.75" y2="696.18" xlink:href="#linear-gradient"/><linearGradient id="linear-gradient-166" x1="284.15" y1="1299.19" x2="285.81" y2="1299.19" gradientTransform="translate(774.7 -627.76) rotate(13.19)" xlink:href="#linear-gradient"/><linearGradient id="linear-gradient-167" x1="452.42" y1="1055.96" x2="455.79" y2="1055.96" gradientTransform="translate(451.55 -400.53) rotate(7.97)" xlink:href="#linear-gradient"/><linearGradient id="linear-gradient-168" x1="245.79" y1="1371.44" x2="247.45" y2="1371.44" gradientTransform="translate(856.17 -675.48) rotate(14.41)" xlink:href="#linear-gradient"/><linearGradient id="linear-gradient-169" x1="327.03" y1="1243.87" x2="330.4" y2="1243.87" gradientTransform="translate(682.8 -564.49) rotate(11.69)" xlink:href="#linear-gradient"/><linearGradient id="linear-gradient-170" x1="715.65" y1="489.72" x2="1073.21" y2="489.72" xlink:href="#linear-gradient-5"/><linearGradient id="linear-gradient-171" x1="1067.47" y1="600.71" x2="1161.04" y2="600.71" xlink:href="#linear-gradient-5"/><linearGradient id="linear-gradient-172" x1="1076.74" y1="600.45" x2="1087.95" y2="600.45" xlink:href="#linear-gradient-5"/><linearGradient id="linear-gradient-173" x1="1079.76" y1="589.37" x2="1086.78" y2="589.37" xlink:href="#linear-gradient-5"/><linearGradient id="linear-gradient-174" x1="904.92" y1="537.79" x2="924.25" y2="537.79" xlink:href="#linear-gradient-5"/><linearGradient id="linear-gradient-175" x1="983.66" y1="494.81" x2="994.05" y2="494.81" xlink:href="#linear-gradient-5"/><linearGradient id="linear-gradient-176" x1="975.32" y1="471.13" x2="992.49" y2="471.13" xlink:href="#linear-gradient-5"/><linearGradient id="linear-gradient-177" x1="814.51" y1="507.04" x2="831.97" y2="507.04" xlink:href="#linear-gradient-5"/><linearGradient id="linear-gradient-178" x1="832.7" y1="432.54" x2="838.05" y2="432.54" xlink:href="#linear-gradient-5"/><linearGradient id="linear-gradient-179" x1="963.79" y1="599.35" x2="973.46" y2="599.35" xlink:href="#linear-gradient-5"/><linearGradient id="linear-gradient-180" x1="945.16" y1="381.96" x2="959.28" y2="381.96" xlink:href="#linear-gradient-5"/><linearGradient id="linear-gradient-181" x1="968.43" y1="576.85" x2="983.98" y2="576.85" xlink:href="#linear-gradient-5"/><linearGradient id="linear-gradient-182" x1="1159.85" y1="633.72" x2="1338.31" y2="633.72" xlink:href="#linear-gradient-5"/><linearGradient id="linear-gradient-183" x1="1112.54" y1="554.08" x2="1298.26" y2="554.08" xlink:href="#linear-gradient-5"/><linearGradient id="linear-gradient-184" x1="1211.79" y1="533.82" x2="1282.75" y2="615.5" xlink:href="#linear-gradient"/><linearGradient id="linear-gradient-185" x1="1088.67" y1="602.5" x2="1319.89" y2="602.5" xlink:href="#linear-gradient-5"/></defs><rect x="0.5" y="0.5" width="1365" height="767"/><path d="M1365,1V767H1V1H1365m1-1H0V768H1366V0Z"/><path class="cls-1" d="M758,5.42c0,1.78-.63,2.76-1.73,2.76s-1.63-1-1.64-2.69.72-2.72,1.73-2.72S758,3.75,758,5.42Zm-2.7.08c0,1.36.4,2.13,1,2.13s1-.84,1-2.18-.32-2.13-1-2.13S755.3,4.07,755.3,5.5Z"/><path class="cls-2" d="M759.08,6.52h0L758.2,7l-.13-.54,1.09-.61h.57v5.23h-.65Z"/><path class="cls-3" d="M758,11.52h0l-.87.49-.13-.54,1.09-.61h.57v5.23H758Z"/><path class="cls-4" d="M236.93,133.89s-38.08,5-120.08,60c0,0-27.25,44.4-38.62,41.2L25.38,265.73"/><path class="cls-5" d="M745.92,27.35c1.13-6.3,4.81-12.1,7.38-18.11a9.91,9.91,0,0,1,.94-1.84c1.63-2.23,2.27-4.54.7-6.68-1.39-1.91-3.65-.72-5.12,2.33-2.71,5.64-5.4,11.31-8.25,16.8-1.89,3.64-2.13,7-1.82,11.13.68,9.1.92,18.4,1,27.71,0,4.06-1.41,7.7-4.27,9.74-5.24,3.73-8.32,10-9.92,18.28-.45,2.31-1.32,5.19-2.53,6.53-3.33,3.68-5.31,8.43-7,13.81-.66,2.13-1.59,4.56-2.8,5.86-3.3,3.55-6.84,6.52-10.24,9.85a65,65,0,0,0-6.12,6.63c-1.33,1.71-2.32,2.47-3.83,1.5a20.14,20.14,0,0,0-1.77-1c0,.58-.11,1.15-.19,1.74s-.15.91-.24,1.36a17,17,0,0,1,2.61,2.49c.4.42-.45,4.21-1.22,6-2.18,5.14-4.21,10-4.1,16.21.07,4-5.46,12.82-8,14.71a14.3,14.3,0,0,0-2.69,2.82,21.76,21.76,0,0,1,.33,3,9.27,9.27,0,0,1,2.54-2.56c.29,6.13.39,12.4,1,18.47.24,2.56.2,4.29-1.23,6.26-1.85,2.55-1.88,5.41-1.35,8.51a37,37,0,0,1,.18,6.36c0,1.29-.3,2.63-.29,3.91,0,7.92,0,15.86.22,23.73a14.41,14.41,0,0,1-2.54,9.17c-6.09,8.74-12.06,17.7-18.27,26.22a24.72,24.72,0,0,1-4.28,4.48,25.47,25.47,0,0,1-.6,17.25c0,.11,0,.24.06.36,2.31,9.51.79,19.6-2.56,28.41a49,49,0,0,0-3.23,21,37.19,37.19,0,0,1-.22,4.34l-1.73.1a30,30,0,0,1,0,8.46,23.3,23.3,0,0,1-4.56,11.1c-.39,1-.79,2.07-1.22,3.07a206.26,206.26,0,0,1-9.7,18.51c-1.2,2.14-2.71,4.49-4.29,5.45-4.47,2.71-7.07,7.47-8.38,14.17-1,5.34-2.17,10.67-3.06,16a16.4,16.4,0,0,1-3.63,8.31c0,.94,0,1.9,0,2.86l.46-.63a4.22,4.22,0,0,1,.34,2.58c-.36,1.42-.75,2.82-1.18,4.21s-.83,2.82-1.21,4.22c-.73,3.93-1.55,7.84-2.43,11.72a53.76,53.76,0,0,0,.26,17,32.29,32.29,0,0,1,.49,6.74c-.14,5-.32,10.08-.51,15.12a12.55,12.55,0,0,1,2.34-1.13c.19-4.58.39-9.17.63-13.76.83-16.2.59-32.34,6-48.47,2.24-6.72,3-14.34,4.4-21.56,1-5.38,2.82-9.5,6.49-12a20.32,20.32,0,0,0,5.11-6c1.93-3.12,3.52-6.73,5.26-10.14a11.51,11.51,0,0,1,1.06,1c.42-1.35.88-2.69,1.36-4a9.9,9.9,0,0,1,1.54-4,73.52,73.52,0,0,1,5.53-10.6q.7-1.1,1.44-2c-.11-.77-.2-1.55-.26-2.33-.17-2.47,1.74-5.65,2.45-8.61.83-3.45,1.4-7,2.06-10.52.31-1.65.56-3.31.87-5.16-1.75-1.33-.75-4.14,0-6.64,1.27-4.2,2.7-8.32,4.07-12.47.18-.51.41-1,.63-1.52l1.78,2.07c.09-.81.2-1.62.3-2.44-1.31-1.92-1.7-4.42-.63-7.73,1.64-5.05,1.87-9.64.39-14.14a16.72,16.72,0,0,1-.42-4.59,11,11,0,0,1,.55-2.4l1.54,1c-1.91-5.66-1.55-7.68,1.8-12.59,2.58-3.78,4.91-7.95,7.52-11.65.7-1,2.76-1.64,2.92-1.19.28.79.68,1.55.93,2.4a19.83,19.83,0,0,1,3.3-3.88,28.88,28.88,0,0,1-2.08-2.06,5.24,5.24,0,0,1,.26-3.25c2-2,4-5.17,6.27-2.13a1.21,1.21,0,0,0,.83.43c.16-.9.31-1.8.47-2.7a7.29,7.29,0,0,1-1.69-3.91c.65-1.8,1.89-3.85,2-5.79.41-7,.42-14,.59-21,.1-4-.22-8,.43-11.89.5-2.94.89-5.22,0-7.74-.35-.95,0-3.72.48-4.25,2.22-2.25,2.14-4.61,1.76-7.67-1.51-12.17-2-24.27,5.77-35a3.28,3.28,0,0,0,.54-1.11c.33-1.38,1-3,.84-4.15-.88-7.12,3.15-10.37,5.94-15,.25,1.21.58,2.53.79,3.81a23.47,23.47,0,0,1,1.6-2.23c-.33-2.12-.59-4.3-.84-6.5a7.06,7.06,0,0,1,1.16-4.22c4.41-4.44,8.93-8.57,13.24-12.63.67,1.45,1.27,3,1.85,4.47.26-.46.54-.9.83-1.34a10.72,10.72,0,0,1,.15-6,106.68,106.68,0,0,1,3.45-10.6,45.16,45.16,0,0,1,2.86-5.2c1.49-2.81,3.46-5.44,4.3-8.55,1.62-6,3.55-11.25,7.35-14.8a18.24,18.24,0,0,0,3.65-4.16c1.55-2.69,3.55-5.67,4-8.71a113.42,113.42,0,0,0,1-17.33C746.5,40.26,744.8,33.58,745.92,27.35Z"/><path class="cls-6" d="M762.65,17.81c-.63-4-3.61-7.57-5.56-11.33a4.66,4.66,0,0,0-.74-1.14C755,4,754.57,2.51,756.13,1.12c1.38-1.25,3.36-.55,4.5,1.35,2.12,3.52,4.2,7,6.44,10.47,1.49,2.27,1.5,4.37,1,7-1.19,5.79-2,11.7-2.64,17.61a5.76,5.76,0,0,0,3.27,6.08c4.53,2.25,6.93,6.17,7.87,11.37a7.28,7.28,0,0,0,1.88,4.09c2.79,2.26,4.3,5.23,5.48,8.6a8.19,8.19,0,0,0,2.17,3.66c2.78,2.18,5.81,4,8.69,6a42.65,42.65,0,0,1,5.14,4.06c1.1,1.06,2,1.52,3.39.86.52-.23,1.09-.5,1.68-.7A10.09,10.09,0,0,0,805,82.7a8.1,8.1,0,0,0,.13.86,17.47,17.47,0,0,0-2.53,1.65c-.39.27.14,2.65.73,3.78,1.66,3.21,3.2,6.27,2.71,10.19-.31,2.54,4.15,8,6.37,9.15a9.7,9.7,0,0,1,2.27,1.73,11,11,0,0,0-.49,1.9,6.69,6.69,0,0,0-2.14-1.57c-.65,3.9-1.14,7.88-2,11.75-.38,1.63-.45,2.73.72,3.94,1.53,1.58,1.37,3.39.69,5.38a17.27,17.27,0,0,0-.55,4c-.07.82.1,1.66,0,2.47-.53,5-1,10.08-1.69,15.08a6.49,6.49,0,0,0,1.73,5.76c5,5.4,9.84,10.95,14.95,16.21a16.53,16.53,0,0,0,3.61,2.74,12.91,12.91,0,0,0-1.54,4.5,11.12,11.12,0,0,0,1,6.44c0,.08-.05.16-.08.23-2.7,6.1-1.95,12.47.54,18a21.52,21.52,0,0,1,1.62,13.29A15.91,15.91,0,0,0,831,223l1.56,0a13.79,13.79,0,0,0-.53,5.38,11.11,11.11,0,0,0,3.45,6.93c.29.65.59,1.3.92,1.92A102.72,102.72,0,0,0,844,248.72a9.49,9.49,0,0,0,3.56,3.36c3.88,1.61,5.95,4.58,6.72,8.8.62,3.37,1.3,6.72,1.77,10.11a8,8,0,0,0,2.77,5.19,15.75,15.75,0,0,0-.14,1.82l-.38-.39c-.53.93-.56,1.3-.47,1.64.24.89.51,1.78.81,2.65s.58,1.77.83,2.65c.42,2.48.92,4.94,1.47,7.38a24.44,24.44,0,0,1-1.3,10.79,15.14,15.14,0,0,0-.86,4.29c-.19,3.19-.35,6.39-.5,9.59a12.25,12.25,0,0,0-2-.66c.11-2.91.22-5.81.3-8.72.26-10.27,1.49-20.52-2.4-30.64-1.62-4.21-1.84-9-2.65-13.58-.6-3.39-2-6-5.14-7.44a13.07,13.07,0,0,1-4.27-3.68,70.91,70.91,0,0,1-4.14-6.32c-.37.22-.71.45-1,.68-.3-.85-.62-1.68-1-2.51a4.51,4.51,0,0,0-1.16-2.47,35.73,35.73,0,0,0-4.35-6.61,14.11,14.11,0,0,0-1.18-1.25c.15-.5.28-1,.38-1.49.31-1.57-1.22-3.55-1.68-5.41-.55-2.17-.84-4.42-1.22-6.63-.17-1-.3-2.09-.46-3.25,1.67-.89.94-2.65.41-4.22-.89-2.64-1.93-5.22-2.92-7.82-.13-.32-.31-.62-.47-1L821.54,205l-.12-1.54a4.23,4.23,0,0,0,1.05-4.92,10.13,10.13,0,0,1,.54-9,8.16,8.16,0,0,0,.67-2.92,4.57,4.57,0,0,0-.35-1.52l-1.46.65c2.1-3.64,1.9-4.91-.84-7.95-2.11-2.34-4-4.93-6.1-7.22-.57-.61-2.41-1-2.58-.68-.3.5-.72,1-1,1.55a12.79,12.79,0,0,0-2.75-2.39c.7-.41,1.37-.91,2-1.36a2.31,2.31,0,0,0,0-2.05c-1.66-1.23-3.28-3.2-5.56-1.21a1.36,1.36,0,0,1-.78.29c-.09-.56-.17-1.13-.26-1.7a4.89,4.89,0,0,0,1.79-2.52c-.48-1.13-1.48-2.4-1.46-3.63.07-4.44.49-8.87.78-13.3.16-2.52.71-5.09.35-7.54-.26-1.85-.47-3.29.53-4.91a3,3,0,0,0-.16-2.69c-1.87-1.37-1.65-2.88-1.11-4.83,2.13-7.76,3.29-15.45-3.05-22.09a1.65,1.65,0,0,1-.42-.69c-.22-.87-.71-1.87-.51-2.62,1.26-4.54-2.2-6.5-4.45-9.39-.3.77-.68,1.62-1,2.44A11.42,11.42,0,0,0,794,89.89c.44-1.36.8-2.74,1.17-4.15a3.2,3.2,0,0,0-.78-2.65c-3.73-2.72-7.58-5.23-11.24-7.7-.7.93-1.34,1.91-2,2.88a10.3,10.3,0,0,0-.68-.83,4.91,4.91,0,0,0,.25-3.84A47.24,47.24,0,0,0,778.29,67,22.23,22.23,0,0,0,776,63.72c-1.18-1.75-2.8-3.37-3.37-5.32-1.09-3.78-2.52-7.07-5.75-9.23a11.94,11.94,0,0,1-3-2.55c-1.24-1.67-2.87-3.52-3.11-5.44a49.8,49.8,0,0,1,.14-11C761.32,26,763.28,21.74,762.65,17.81Z"/><path class="cls-7" d="M421.31,128.52c11,8.76,24.15,11.7,37.58,14.74,14.12,3.19,27.81,8.49,41.43,13.55,6.64,2.47,10.08,9.7,8.93,16.92C501.63,154.32,483,154.4,468,148.78c-10.4-3.9-22.31-3.89-32.53-8.09-11.72-4.81-22.3-12.36-33.4-18.67-4.53-2.57-8.71-7.08-15.21-2.68a159.05,159.05,0,0,0,39.84,23.74c20.46,8.61,40.68,17.78,61,26.63a54.58,54.58,0,0,0,9.47,3.17c6.64,1.53,12.08,4.54,16,10.34,1.05,1.54,3.67,2,5.57,3,0-2.28.62-4.75-.06-6.79s-2.62-3.45-3.18-6.26c2.21,1.8,5.67,3.19,6.4,5.46,2.45,7.55,3.52,15.53,5.87,23.12,3,9.8,6.76,19.39,10.21,29.06.94,2.64,1.92,5.26,2.91,8,11.4-1.33,20.9,5.06,27.22,15.44,7.33,12.05,16.52,22.88,30.22,28.58,1.06.44,1.86,1.49,4.24,3.47-8.76-.16-13.66-3.46-18.06-8.43-4.17-4.71-9.28-8.61-13.28-13.44s-7.22-10.48-10.84-15.85c-5.13,4.48-10.58,7.71-9.23,15.22.22,1.2-1.82,2.79-3.29,3.86,1.85-7.64-.07-16.66,10.1-20.75-.5-.87-1-1.73-1.49-2.6-3.84-.81-7.67-1.58-11.5-2.42-4.74-1-9.65-1.64-14.16-3.31-11.54-4.3-23-8.85-34.29-13.81-4.58-2-8.57-5.37-13.4-8.49-1,9.35-4.57,16.57-15.38,17a20.19,20.19,0,0,1,2.29-2.06c5.52-3.7,10.89-8.61,8.42-15.37-2.69-7.36-6.86-15.46-16.34-16.08-12.69-.83-21.78-8.79-32.08-14.5C417,178,403.62,171.11,390.49,163.81a20.47,20.47,0,0,1-7.5-6.59c-4.57-7.48-11.67-10.91-19.82-13.95-1.25,7.23-5.93,10.46-12.91,11.29-1.94.23-5,1.7-5.21,3-.3,1.71,1.42,4,2.76,5.71,2.15,2.7,6.7,4.27,3.52,9.7-3.24-4.1-6.43-7.69-9.09-11.62-3.29-4.88-1.06-8,3.92-9.77.21-.07.42-.15.64-.21,4.9-1.33,11.67-.17,11.85-8.08.15-6.48-8.64-17.11-15.34-17.63-4.39-.34-9,1.29-13.42,2.36a37.65,37.65,0,0,0-8.71,3.16c-2.25,1.19-5.18,2.89-5.75,4.94-.48,1.72,1.49,5.32,3.3,6.22,3.75,1.84,8.11,2.42,12.21,3.55,3.78,1,8,1.54,9,7.38-9.14-3.42-17.67-6.64-26.22-9.8-6.28-2.31-14.15,4.12-14.83,12.47-.41,5-.08,10.05-.08,16.54-1.68-2.38-4.16-4.36-3.87-5.74,2-9.58-4.53-14.64-10.82-21H260.3V143h19.11c3.78-6.38,6.8-11.24,9-16.44.94-2.19.27-5.1.28-7.68,0-4.37,0-8.73,1.58-13,1,5.92,2.27,11.82,2.88,17.79a9.57,9.57,0,0,1-2.09,6.13c-6.31,8.09-5,15.15,2.86,20.51L310,138.57c.18-.13.5-.27.51-.42,1.09-13.38,14.78-9.46,21.5-15.37,4.8-4.23,14.31-1.56,19.84,3.4,2.66,2.38,5.39,4.7,7.83,6.83,2.26-1.63,5.67-3,7.28-5.48,2.64-4.12,5.65-9,5.44-13.5-.1-2.3-6.6-5.54-10.56-6.16-7.74-1.21-15.33-1.31-22.39-6-6.27-4.18-11-.59-10.94,7.19,0,2.94.34,5.92-.09,8.8A6.47,6.47,0,0,1,325,122.3c0-4.94.15-9.89,0-14.82-.3-7.73,5.81-13.11,12.73-9.82,8.3,4,16.4,6.64,25.75,6.44,3.19-.07,6.51,3.46,9.67,5.5,3.54,2.29,7,4.76,10.95,6.42-3.33-7.52-9.21-11.37-16.67-13.91-8.86-3-17.29-7.26-26.07-10.55-3.64-1.37-7.93-2.84-11.51-2.13-5.29,1.06-9.32,0-13-3.33-7-6.28-14.8-6.45-23.52-1.61,2.81.53,5.68,1.74,8.4,1.48,11.58-1.11,18.14,2.17,22.76,12l-1.25,1.5c-2.07-2-4.32-3.77-6.17-5.91a13.72,13.72,0,0,0-16-4C297.44,91,295.2,95.94,293,100c8.33,1,16.64-2.58,22.7,4.91,2.66,3.28,5.43,6.48,8.15,9.72l-1.91,1.66c-2.6-2.54-5.42-4.9-7.77-7.66-4.17-4.93-9.35-5.52-15.28-4.7-2.6.36-7,.48-7.66-.81-1.21-2.3-.56-5.82,0-8.71.34-1.81,1.9-3.39,2.91-5.08C276.43,66.74,251.3,71.86,227.4,72.55l.24-2.69c4.66-.47,9.31-1,14-1.39,16-1.27,31.5-.45,45.39,9.11,1.76,1.22,4.86,1.37,7.1.89,9.15-2,17.19-1,24.58,5.58,2.23,2,6.56,1.67,10,2.22,4.33.72,8.94.56,13,2,8.8,3.09,17.32,7,26,10.49,2.69,1.09,6.43,1.22,8,3.16,7.67,9.42,19.16,12.31,29,18,5.15,3,9.81,7.26,16.57,5.66,1-.22,2.23.4,3.22.9,12.59,6.45,26.67,5.65,40,8.3,11,2.17,22,4.4,32.9,7,8.84,2.07,13.88,10.32,11.29,19.75-.9-2.26-1.66-3.41-1.78-4.63-.67-6.82-5.1-10.63-11-12.17-10.63-2.75-21.4-5-32.21-6.92-7.51-1.33-15.31-1.16-22.76-2.72C434.22,133.58,427.83,130.73,421.31,128.52Zm96.89,60.87-2,1.72c.24,15.49-.38,17.64-5.87,19.38a26.53,26.53,0,0,1,.63-2.64c6.18-17-1.1-29.63-16.71-32-4.71-.71-9.14-3.56-13.57-5.69-5.66-2.73-11-6.11-16.81-8.52-15.12-6.3-30.89-11.24-45.47-18.57-12.93-6.51-24.61-15.49-36.83-23.4-2.44-1.58-5.47-4.38-6.68.52-1.48,6-4.52,9.94-10.1,12.56-1.62.75-2.78,3.52-3.07,5.52-.1.72,2.85,2.25,4.6,2.81a38.48,38.48,0,0,1,18.94,13.26c3.47,4.33,8.55,8.83,13.68,10.09,10.73,2.65,22.16,2.38,33,4.8,19.82,4.45,37.5,13.05,48.37,31.39,3.83,6.48,9.34,9.32,16.26,10.57,2.84.51,5.63,1.29,8.45,1.94l-.28,1.8h-9.56l-.79,2.27c2.23,1.8,4.28,4,6.8,5.18,5.07,2.36,10.52,3.9,15.67,6.1,6.66,2.85,13.18,6,20.88,9.57-1.28-3.13-2-5-2.79-6.79-5-11.43-12-22.14-11.25-35.56C523.8,193.71,520.12,191.5,518.2,189.39ZM405.36,168.48c1.33.75,2.65,1.52,4,2.25,12.81,7,25.55,14.09,38.48,20.85,3.69,1.94,7.9,4,11.88,4,7.71,0,12.37,4,17,9.25,3.57,4.06,8,7.39,12.61,11.62l-16.74-21.67a12.42,12.42,0,0,0-1-1C453.59,175.32,430,170.73,405.36,168.48Z"/><path class="cls-8" d="M589.9,309.79c-6.3-1-10.48-5-11.28-10.93-.87-6.5-5-9.62-9.67-12.85-2.92-2-5.78-4.13-9.09-6.5-.38,4.27-.72,8-.93,10.41l-28.38,5.35A55.32,55.32,0,0,0,532,303c3.58,11.11,2.71,21.1-6.06,29.81-1.65,1.64-1.72,4.87-2.81,8.29h15.64c1.26-7.49,1.61-16.07,4.32-23.82,2.62-7.48,7.67-14.1,12.9-21-1,3.48-.94,7.75-3,10.3a38.14,38.14,0,0,0-8.82,24.79c-.13,15.21-6.43,22.15-21.71,23.52-6.53.59-12.87,1.13-18.21,5.92-3.22,2.9-14.14,1.56-17-1.77a5.49,5.49,0,0,1-.32-5.11,21.36,21.36,0,0,1,17-10.67c2.06-.2,5-.94,5.84-2.4,2.45-4.27,4.63-7.12,10.22-8.73,8.22-2.36,12.39-16,9.84-24.84-2.22-7.69-3.94-15.54-5.66-23.37a6.94,6.94,0,0,1,.83-4.53c6-10.2-1.21-18.83-3.25-28.05-.12-.57-1.33-.9-3.64-2.35,4,10,2.4,17.89-3.12,25.07-1.35,1.75-2.2,4.12-3.91,5.33-7.66,5.4-9.9,14.12-14.37,21.56-3.37,5.6-9.4,9.67-14.5,14.13-.79.69-3.46.37-4.39-.46-3.78-3.4-7.89-6.74-10.61-10.92s1.81-10.23,8.43-12c11.19-2.93,11.08-4.45,10.38-15.7-.52-8.47-3.63-18.81,7-24.83,2-1.14,2.95-4.2,4.45-6.49-8.14-3.17-10.73-1.93-15.52,3.83a24.83,24.83,0,0,1-11.38,7.8c-6.47,2.12-12.58,3.61-17.15,9.6-3.68,4.83-9.47,5.13-15.46,3-4.37-1.52-9.2-1.68-13.68-3a107.65,107.65,0,0,1-16.66-5.89c-1.64-.78-3.41-5.19-2.68-6.22,1.37-1.94,5.3-4.27,6.78-3.55,9.42,4.57,16.8-.11,24.44-4.29a2.32,2.32,0,0,1,1.28-.38c6.59,1.08,13.23,4.12,19.61-1.66-3,7.3-6.95,8.68-14,6.36-1.94-.64-4.22-.27-6.34-.36.13,1.77.2,3.53.38,5.29a15.79,15.79,0,0,0,.68,3.25c.72,2.25,1.42,6.93,2.29,7,3.38.14,8.24.16,10-1.92,5.6-6.75,12.55-9.65,20.8-11.08,2.83-.5,5.37-2.72,7.56-5.61-2,.41-3.93.87-5.92,1.23a13.41,13.41,0,0,1-15-7.56c-.57-1.12-1.23-2.84-2.14-3.06-7.51-1.76-10.06-8.34-14.07-13.66C428.5,207,410.55,197.08,392,188.19a13.47,13.47,0,0,0-10.19-.2c-8.79,4-16.39,3.24-23.94-2.69-6.19-4.86-7.43-4.41-12,2.08-1.17,1.65-2.92,2.9-4,4.6-2.36,3.76-4.49,7.67-6.63,11.56a12.75,12.75,0,0,1-2.55,4c-2.26-5.75-.66-10.87,2.89-15.58.93-1.23,2.64-1.9,3.48-3.16,2-3.06,5.59-6.69,5-9.38-.51-2.48-5.44-4.24-8.63-5.95-4.14-2.22-8.47-4.09-12.73-6.08a39.54,39.54,0,0,1-9.28-5.41c2.79.25,5.79-.08,8.31.87a166.43,166.43,0,0,1,19,8.28c3.15,1.64,5.62,4.59,8.15,6.75,2.83,1.07,6.05,1.59,8.38,3.3,7.61,5.59,15,8.38,24.27,3.15,2.9-1.63,8.26-1.08,11.53.49,21.61,10.44,42.27,22.14,55.49,43.57,2,3.32,7.31,4.65,11.87,7.37-.34,7.78,3,10.64,12.89,8.49,4.36-1,8.48-3.4,12.85-3.87,15.36-1.64,29.17,4.29,42.85,10.09,1.84.78,3.12,3.75,3.91,6,1.39,4,2.59,7.72,7.61,8.37a3.25,3.25,0,0,1,2.25,2c1.16,5.75,5.73,6.41,10.24,7,10.48,1.31,26.24,14.79,28.74,24.75,1.77,7.07,4.49,8.1,12.85,5.15l-4.88,6.3Zm-78.7-35.06-23-6c.61,4.65.83,7.52,1.37,10.33,1.91,9.84-1.45,14.5-11.13,16.64-3.31.73-6.22,3.26-9.73,5.21,3.81,4.18,6.35,7.34,9.31,10,1.05,1,3.75,1.65,4.62,1,3.57-2.64,8.25-5.24,9.74-9C496.64,292.25,501.07,281.92,511.2,274.73Zm45.16,11.78c-.34-3.11,1.7-8.17-4.85-9.1-9-1.27-12.73-9.69-19.42-14.1-1-.68-1.06-2.82-1.67-4.23-.73-1.71-1.59-3.36-2.76-5.81a11.29,11.29,0,0,0-.87,2.38,4.39,4.39,0,0,0,.39,2c4.23,7.78,4.72,15.42,1,23.8-.92,2.08,1.69,7.46,4.09,8.79,2.61,1.46,6.91.3,10.37-.31C547.12,289.1,551.47,287.74,556.36,286.51Zm-39.43-25.9a76.58,76.58,0,0,0-1.55-8.48c-1.33-4.49-11.82-7.79-14.68-4.74q-4.8,5.13-9.42,10.44c-3.67,4.22-2.62,7.19,2.74,8.6,3.46.9,6.84,2.12,10.22,3.28A9.57,9.57,0,0,0,516.93,260.61Zm18.52,86.82-1.33-2.18c-1.09-.17-2.25-.67-3.25-.45-5.47,1.16-10,.74-11.08-6-1.75.29-4.71.09-5.07,1-2.49,6-6.62,8.31-13.11,8.33-5.7,0-9.56,3.69-12.4,10,4.67.56,10.21,2.89,12.19,1.16,8.16-7.16,17.74-6.55,27.27-7.52C531.05,351.43,533.2,348.91,535.45,347.43ZM406.82,255.61c7.64,10.29,17.43,6.13,27.44,7.56-1.13-3.8-2-6.63-2.26-7.56Z"/><path class="cls-9" d="M311.57,167.06c-1.28,2.49-2.28,5.18-3.9,7.43-5.32,7.39-5.14,9.57.34,16.54,2.44,3.1,4.71,6.85,5.52,10.63,2.69,12.42,6.57,24.8,1.81,37.79-1,2.86.73,6.75,1.2,10.17,3-.56,5.92-1.19,8.9-1.67,4.89-.79,9.82-1.32,14.67-2.29,1.39-.28,3.4-1.47,3.69-2.6,1.29-5-.69-8.56-5.42-11-8-4-9.64-10.08-4.59-20.54,0,3.69.07,5.48,0,7.27-.21,4.68,1.2,8.13,5.92,10.22,6,2.67,7.78,7.77,8,14.29.37,11.57,1.47,23.14,2.77,34.65.29,2.56,2.18,5.42,4.16,7.22,4,3.64,8.8,6.4,12.8,10,1.61,1.47,2.32,4.2,2.89,6.49,1.42,5.64,4.63,8.49,10.61,8.07,6.8-.47,11,2.71,12.93,9.28,1,3.51,2.4,6.92,3.62,10.38-3.57.44-7.31.37-10.69,1.43-5.9,1.84-9.11-1.44-13.61-4.43-6.44-4.27-12.91-10.05-22.17-8.18-3.7.75-7.75-.45-9-5.25-.17-.63-.41-1.53-.89-1.77-9.16-4.56-8.19-13.51-9.5-21.53-1.45-8.91-4.68-16.75-12.58-22.21-3.75-2.59-6.62-6.24-3.48-12.27,4.86,11.51,17.52,17.17,18.75,30.3.48,5.13,1.38,10.23,2.29,15.31s3.83,6.47,8.18,4.3c3.55-1.77,7.42-3,10.76-5a11.89,11.89,0,0,0,4.92-5.81c.29-.92-2.82-3.68-4.83-4.44-9.94-3.8-8.83-13.12-10.62-20.85-.62-2.7.84-5.82.61-8.69-.28-3.39-.33-8.57-2.3-9.66-3.32-1.83-8.14-1.62-12.21-1.17-3.43.38-6.6,2.74-10,3.47-6.83,1.45-9.56-.82-10.11-7.79-.14-1.79-.56-3.88.13-5.37,5.18-11.14,1.47-22.19-.33-33.15a27.3,27.3,0,0,0-5-12.26C295.54,181.56,298.94,178.55,311.57,167.06ZM344,310c4.43,5.74,4.42,5.69,9.11,4.52,1.47-.37,3.33-1,4.51-.45,5.62,2.68,12.86,4.39,16.18,8.91,6.29,8.55,14,3.06,22,5.71-1.84-3.09-3.14-4.66-3.77-6.46-2.35-6.71-6.36-10.07-14-9.7-4.84.23-8.82-2.82-10.13-8.17-.57-2.28-1.38-4.51-2-6.53Z"/><path class="cls-10" d="M589.75,310.43c7.57,2.86,17,1,22.71,8.49,2.07,2.69,3.31,6,5.3,8.79,1.3,1.83,3,4.15,5,4.59,4,.91,8.32.71,14.29,1.08-2.9-4.77-4.15-9.22-7.08-11.23-11.11-7.61-21.31-15.68-24.42-29.35l-10.54,5-1.13-1.73c3.5-2.47,6.76-5.74,10.66-6.92,1.13-.34,4.88,5,6,8.23,3,8.55,9.07,14.41,16.36,18.73,5.65,3.34,8.89,7.89,11.41,13.52,1.74,3.88.34,6.12-3.36,7.17-8.56,2.43-16.61-2.51-20.51-10.55-2.87-5.93-8.28-10.09-15.66-9.84-4.57.15-7.95-1.15-8.85-6.14Z"/><path class="cls-11" d="M434.72,298.48l39.77,16.3L474,317.1c-3.07-.64-6.31-.87-9.18-2-6.75-2.7-13.32-5.85-20-8.78-.61-.27-1.37-.16-2-.41-4.72-1.89-10.66-3-9.64-10,.63-4.23,8.13-7.31,13.92-4.79,6.72,2.92,12.71,5.47,19.14,0,.34-.29,1.31,0,1.92.24.34.12.54.64.8,1-6.64,6.59-11.07,7.41-19.09,3.35C444.81,293.07,440.15,293.17,434.72,298.48Z"/><path class="cls-12" d="M311.64,212.89c-29.84-5.43-46.11-43.4-46.11-43.4-1.36-48.82-73.24-42-73.24-42s-24.19,22.38-69.06,30.64-88.85,34.38-88.85,34.38"/><path class="cls-13" d="M227.4,72.61a26.12,26.12,0,0,1-16.12,6S181.44,89.47,172,100.32c0,0-14.92,4.07-21.7,2.71,0,0-32.55,2.72-42,10.85,0,0-25.77,8.14-33.91,16.28s-26.45,6.62-26.45,6.62"/><path class="cls-14" d="M266.58,171.74s-16,8.6-25.46,8.6-25.77,16.27-25.77,16.27L192.29,221.5s-60.62,50.18-73.71,47.23c0,0-33.66,17.65-36.94,17.52s-33.79,21.59-33.79,21.59"/><path class="cls-15" d="M757.73,18.81c-.41,1.73-1.25,2.54-2.32,2.29s-1.36-1.31-1-3,1.33-2.48,2.31-2.25S758.12,17.19,757.73,18.81Zm-2.64-.55c-.32,1.33-.11,2.17.49,2.32s1.18-.59,1.49-1.89.19-2.15-.49-2.31S755.42,16.88,755.09,18.26Z"/><path class="cls-16" d="M755.65,24.83c-.43,1.72-1.27,2.53-2.34,2.26s-1.35-1.32-.95-3,1.36-2.47,2.33-2.23S756.05,23.21,755.65,24.83ZM753,24.25c-.32,1.33-.12,2.17.47,2.32S754.67,26,755,24.7s.21-2.15-.46-2.32S753.36,22.87,753,24.25Z"/><path class="cls-17" d="M753.57,30.85c-.46,1.72-1.32,2.51-2.38,2.23s-1.33-1.34-.9-3,1.39-2.45,2.37-2.19S754,29.24,753.57,30.85Zm-2.63-.61c-.35,1.32-.16,2.16.43,2.32s1.2-.56,1.54-1.85.24-2.14-.43-2.32S751.31,28.86,750.94,30.24Z"/><path class="cls-18" d="M751,34.57h0l-.93.34,0-.55,1.17-.43.57.1-.86,5.16-.64-.1Z"/><path class="cls-19" d="M751.44,42.27c.16,1.78-.38,2.81-1.48,2.91s-1.7-.82-1.87-2.54.48-2.78,1.49-2.86S751.3,40.61,751.44,42.27Zm-2.68.32c.12,1.35.58,2.09,1.19,2s.94-.93.83-2.27-.5-2.1-1.19-2S748.64,41.17,748.76,42.59Z"/><path class="cls-20" d="M752.91,47.94c.51,1.71.18,2.83-.87,3.14s-1.84-.45-2.34-2.11-.08-2.82.89-3.1S752.44,46.34,752.91,47.94Zm-2.56.84c.38,1.31,1,1.94,1.57,1.77s.73-1.1.36-2.38-.91-2-1.58-1.77S749.94,47.42,750.35,48.78Z"/><path class="cls-21" d="M753.41,52.57h0l-.65.75-.3-.47.81-.94.55-.19,1.74,4.94-.61.21Z"/><path class="cls-22" d="M755.42,58.55h0l-.69.72-.28-.47.87-.91.54-.16,1.52,5-.62.19Z"/><path class="cls-23" d="M759.72,66.11c.33,1.75-.11,2.83-1.19,3s-1.78-.65-2.11-2.35.21-2.81,1.2-3S759.42,64.47,759.72,66.11Zm-2.63.57c.24,1.34.78,2,1.38,1.92s.84-1,.6-2.33-.7-2-1.38-1.92S756.83,65.28,757.09,66.68Z"/><path class="cls-24" d="M759.52,70.51h0l-.77.62-.22-.51,1-.78.57-.09.84,5.17-.64.1Z"/><path class="cls-25" d="M762.58,78.15c.28,1.76-.18,2.83-1.27,3s-1.76-.68-2-2.39.27-2.8,1.27-3S762.31,76.5,762.58,78.15Zm-2.66.51c.22,1.35.74,2,1.34,2s.87-1,.66-2.32-.65-2.06-1.34-2S759.7,77.25,759.92,78.66Z"/><path class="cls-26" d="M763.53,84.42c0,1.78-.63,2.76-1.73,2.76s-1.63-1-1.64-2.69.72-2.72,1.72-2.72S763.53,82.75,763.53,84.42Zm-2.7.08c0,1.36.4,2.13,1,2.13s1-.84,1-2.18-.32-2.13-1-2.13S760.83,83.07,760.83,84.5Z"/><path class="cls-27" d="M761.78,88.54h0l-.9.41-.08-.54,1.13-.52.57,0L762,93.16l-.65-.06Z"/><path class="cls-28" d="M760.81,97.24c-.87,1.56-1.89,2.12-2.85,1.58s-1-1.63-.13-3.15,1.95-2,2.83-1.54S761.62,95.79,760.81,97.24ZM758.41,96c-.66,1.2-.69,2.06-.15,2.36s1.3-.25,1.94-1.41.77-2,.16-2.36S759.1,94.76,758.41,96Z"/><path class="cls-29" d="M758.06,99.9h0l-1,0,.17-.53,1.24,0,.49.3-2.72,4.47-.55-.33Z"/><path class="cls-30" d="M754.35,105.25h0l-1-.28.3-.47,1.19.36.4.42-3.79,3.61-.44-.47Z"/><path class="cls-31" d="M750,109h0l-1-.07.19-.52,1.25.09.47.32L748,113.11l-.54-.36Z"/><path class="cls-32" d="M746.5,116.23c-.85,1.57-1.87,2.13-2.84,1.6s-1-1.62-.15-3.15,1.93-2,2.82-1.56S747.3,114.77,746.5,116.23ZM744.09,115c-.65,1.2-.67,2.07-.13,2.36s1.3-.26,1.94-1.43.74-2,.13-2.36S744.78,113.76,744.09,115Z"/><path class="cls-33" d="M744.28,119.64h0l-1,.23,0-.55,1.22-.3.55.16-1.42,5L743,124Z"/><path class="cls-34" d="M743.45,128c-.56,1.69-1.47,2.42-2.51,2.07s-1.24-1.43-.7-3.08,1.55-2.35,2.5-2S744,126.38,743.45,128Zm-2.58-.79c-.43,1.3-.3,2.16.28,2.35s1.23-.48,1.66-1.74.38-2.13-.28-2.35S741.33,125.82,740.87,127.17Z"/><path class="cls-35" d="M741.33,134.09c-.7,1.64-1.67,2.29-2.68,1.85s-1.12-1.52-.44-3.12,1.74-2.21,2.66-1.81S742,132.56,741.33,134.09Zm-2.51-1c-.54,1.25-.48,2.11.08,2.36s1.27-.38,1.8-1.61.56-2.08-.08-2.36S739.39,131.79,738.82,133.1Z"/><path class="cls-36" d="M738.9,140c-.65,1.66-1.59,2.35-2.61,2s-1.18-1.49-.56-3.11,1.65-2.28,2.59-1.91S739.5,138.48,738.9,140Zm-2.55-.9c-.49,1.27-.4,2.14.17,2.36s1.25-.42,1.74-1.67.47-2.11-.17-2.36S736.87,137.8,736.35,139.13Z"/><path class="cls-37" d="M735,143.85h-1l.15-.53h1.25l.5.27-2.53,4.59-.57-.32Z"/><path class="cls-38" d="M732.8,151.82c-.42,1.73-1.26,2.54-2.33,2.28s-1.36-1.32-1-3,1.34-2.48,2.32-2.25S733.19,150.19,732.8,151.82Zm-2.64-.56c-.32,1.33-.12,2.17.48,2.31s1.18-.58,1.5-1.88.19-2.15-.48-2.31S730.49,149.88,730.16,151.26Z"/><path class="cls-39" d="M731.75,157.59c-.18,1.77-.91,2.69-2,2.57s-1.52-1.12-1.36-2.84,1-2.64,2-2.53S731.92,155.93,731.75,157.59Zm-2.69-.19c-.14,1.35.18,2.16.78,2.22s1.1-.73,1.24-2.06-.09-2.16-.79-2.23S729.21,156,729.06,157.4Z"/><path class="cls-40" d="M730.4,164.4c-1,1.45-2.09,1.9-3,1.27s-.79-1.72.19-3.15,2.15-1.82,3-1.24S731.36,163,730.4,164.4Zm-2.25-1.49c-.78,1.12-.9,2-.4,2.33s1.32-.11,2.08-1.2,1-1.93.4-2.33S729,161.75,728.15,162.91Z"/><path class="cls-41" d="M726.11,167.25h0l-1-.29.3-.46,1.19.35.4.42-3.77,3.63-.46-.47Z"/><path class="cls-42" d="M720.88,173.8c-1.44,1-2.6,1.13-3.25.24s-.19-1.88,1.19-2.91,2.62-1,3.22-.22S722.22,172.81,720.88,173.8Zm-1.66-2.13c-1.1.81-1.49,1.59-1.13,2.08s1.29.32,2.36-.47,1.54-1.52,1.13-2.08S720.37,170.83,719.22,171.67Z"/><path class="cls-43" d="M715.77,177.82c-1.46,1-2.62,1.08-3.25.18s-.15-1.89,1.26-2.9,2.64-1,3.22-.14S717.14,176.87,715.77,177.82Zm-1.61-2.16c-1.12.78-1.52,1.55-1.17,2.05s1.27.35,2.37-.42,1.57-1.48,1.17-2S715.32,174.84,714.16,175.66Z"/><path class="cls-44" d="M711.56,182.29c-1.25,1.27-2.38,1.54-3.17.77s-.49-1.83.71-3.08,2.42-1.44,3.14-.73S712.73,181.1,711.56,182.29Zm-2-1.83c-1,1-1.2,1.81-.77,2.23s1.32.11,2.26-.85,1.27-1.74.77-2.23S710.57,179.44,709.57,180.46Z"/><path class="cls-45" d="M706.45,184.94h0l-1-.29.3-.47,1.19.37.39.42-3.81,3.59-.44-.47Z"/><path class="cls-46" d="M702.6,190.2h0l-.75.66-.24-.5.94-.82.56-.12,1.07,5.13-.64.13Z"/><path class="cls-47" d="M704.64,198.79c-.73,1.63-1.71,2.27-2.71,1.81s-1.09-1.54-.39-3.13,1.77-2.18,2.69-1.77S705.33,197.27,704.64,198.79Zm-2.49-1c-.56,1.24-.52,2.11,0,2.36s1.27-.35,1.82-1.57.6-2.08,0-2.36S702.73,196.46,702.15,197.76Z"/><path class="cls-48" d="M700.31,204.22c-1.17,1.34-2.29,1.67-3.12.94s-.6-1.79.53-3.11,2.34-1.57,3.1-.91S701.41,203,700.31,204.22Zm-2.09-1.72c-.89,1-1.1,1.87-.64,2.27s1.32,0,2.2-1,1.17-1.81.65-2.27S699.16,201.43,698.22,202.5Z"/><path class="cls-49" d="M697.85,206.65h0l-1-.09.2-.52,1.24.12.47.32-3,4.31-.54-.37Z"/><path class="cls-50" d="M694.44,214.69c-.62,1.67-1.55,2.37-2.58,2s-1.19-1.47-.6-3.09,1.63-2.3,2.58-2S695,213.13,694.44,214.69Zm-2.55-.87c-.48,1.27-.38,2.14.19,2.35s1.25-.43,1.72-1.68.46-2.11-.19-2.36S692.39,212.48,691.89,213.82Z"/><path class="cls-51" d="M693.76,218.3h0l-.58.81-.34-.43.72-1,.52-.24,2.23,4.74-.59.28Z"/><path class="cls-52" d="M696,226.33c-.25,1.76-1,2.65-2.1,2.5s-1.48-1.18-1.25-2.9,1.09-2.59,2.09-2.45S696.22,224.68,696,226.33ZM693.3,226c-.18,1.34.1,2.17.71,2.25s1.12-.7,1.31-2,0-2.16-.71-2.26S693.5,224.62,693.3,226Z"/><path class="cls-53" d="M693.16,229.65h0l-1-.09.2-.52,1.24.12.47.33-3,4.3-.53-.38Z"/><path class="cls-54" d="M689.57,235.34h0l-1,.21,0-.55,1.21-.26.55.17-1.56,5-.62-.2Z"/><path class="cls-55" d="M688.29,241.27h0l-.94.32,0-.56,1.19-.39.56.11-1,5.14-.64-.12Z"/><path class="cls-56" d="M688.68,249.1c0,1.78-.62,2.76-1.72,2.76s-1.63-1-1.65-2.69.72-2.72,1.73-2.72S688.68,247.43,688.68,249.1Zm-2.69.08c0,1.36.39,2.13,1,2.13s1-.84,1-2.18-.31-2.14-1-2.14S686,247.75,686,249.18Z"/><path class="cls-57" d="M687.44,253.19h0l-.77.63-.22-.51,1-.78.57-.1.86,5.17-.64.11Z"/><path class="cls-58" d="M689.05,260.24h0l-.67.75-.29-.47.83-.93.55-.18,1.67,5-.62.21Z"/><path class="cls-59" d="M693.34,268.55c.58,1.69.3,2.82-.74,3.18s-1.85-.38-2.43-2-.2-2.8.76-3.13S692.8,267,693.34,268.55Zm-2.53.95c.45,1.29,1.07,1.89,1.65,1.7s.69-1.13.25-2.4-1-1.92-1.64-1.69S690.35,268.15,690.81,269.5Z"/><path class="cls-60" d="M695.92,274.67c.45,1.73.09,2.84-1,3.11s-1.82-.52-2.27-2.19,0-2.81,1-3.07S695.5,273.06,695.92,274.67Zm-2.59.76c.35,1.32.92,2,1.52,1.81s.77-1.07.43-2.37-.84-2-1.51-1.81S693,274.05,693.33,275.43Z"/><path class="cls-61" d="M696.07,279.19h0l-.87.5-.13-.54,1.09-.62h.57v5.24h-.65Z"/><path class="cls-62" d="M694.55,285.33h0l-1,.22,0-.56,1.22-.27.55.17-1.52,5-.62-.19Z"/><path class="cls-63" d="M693.88,291.38h0l-.49.87-.39-.4.62-1.08.49-.3,2.7,4.49-.56.33Z"/><path class="cls-64" d="M697.68,299.1c0,1.78-.63,2.76-1.73,2.76s-1.63-1-1.64-2.69.72-2.72,1.73-2.72S697.68,297.43,697.68,299.1Zm-2.7.08c0,1.36.4,2.13,1,2.13s1-.84,1-2.18-.32-2.14-1-2.14S695,297.75,695,299.18Z"/><path class="cls-65" d="M697.59,304.93c.18,1.77-.35,2.81-1.45,2.92s-1.71-.79-1.9-2.51.44-2.78,1.45-2.89S697.42,303.27,697.59,304.93Zm-2.68.35c.14,1.35.61,2.08,1.22,2s.93-.94.79-2.27-.52-2.1-1.21-2S694.77,303.86,694.91,305.28Z"/><path class="cls-66" d="M697.19,309.21h0l-.72.69-.26-.49.91-.86.55-.14,1.29,5.08-.63.16Z"/><path class="cls-67" d="M699.19,316.2h0l-.74.67-.24-.5.93-.83.56-.12,1.11,5.12-.64.13Z"/><path class="cls-68" d="M701.93,324.71c.41,1.74,0,2.84-1,3.09s-1.81-.57-2.21-2.25.08-2.81,1.06-3S701.55,323.09,701.93,324.71Zm-2.61.7c.31,1.32.88,2,1.47,1.85s.8-1.06.49-2.36-.79-2-1.46-1.85S699,324,699.32,325.41Z"/><path class="cls-69" d="M703.87,331.77c.34,1.74-.08,2.83-1.16,3.05s-1.78-.63-2.13-2.32.17-2.81,1.16-3S703.54,330.13,703.87,331.77Zm-2.63.6c.26,1.34.8,2,1.4,1.9s.83-1,.57-2.34-.72-2-1.4-1.9S701,331,701.24,332.37Z"/><path class="cls-70" d="M703.73,336.19h0l-.8.6-.2-.52,1-.75.57-.07.69,5.19-.65.08Z"/><path class="cls-71" d="M705.75,344.1c0,1.78-.62,2.76-1.72,2.76s-1.63-1-1.65-2.69.72-2.72,1.73-2.72S705.75,342.43,705.75,344.1Zm-2.69.08c0,1.36.39,2.13,1,2.13s1-.84,1-2.18-.31-2.14-1-2.14S703.06,342.75,703.06,344.18Z"/><path class="cls-72" d="M704.67,351.29c-.21,1.77-.94,2.67-2,2.55s-1.5-1.15-1.31-2.87,1-2.62,2-2.5S704.87,349.64,704.67,351.29Zm-2.69-.23c-.16,1.35.15,2.17.76,2.24s1.1-.73,1.26-2.05-.06-2.16-.75-2.24S702.15,349.64,702,351.06Z"/><path class="cls-73" d="M702.54,357.61c-.54,1.69-1.43,2.44-2.48,2.11s-1.27-1.4-.76-3.06,1.51-2.38,2.47-2.08S703,356,702.54,357.61Zm-2.6-.74c-.41,1.3-.26,2.16.32,2.34s1.22-.5,1.63-1.78.34-2.13-.32-2.34S700.37,355.51,699.94,356.87Z"/><path class="cls-74" d="M695.52,368.1c0,1.78-.63,2.76-1.73,2.76s-1.63-1-1.64-2.69.72-2.72,1.73-2.72S695.52,366.43,695.52,368.1Zm-2.7.08c0,1.36.4,2.13,1,2.13s1-.84,1-2.18-.32-2.14-1-2.14S692.82,366.75,692.82,368.18Z"/><path class="cls-75" d="M698.14,363.12c-1.07,1.42-2.16,1.83-3,1.18s-.73-1.75.3-3.14,2.2-1.75,3-1.15S699.14,361.78,698.14,363.12Zm-2.21-1.55c-.81,1.09-1,1.94-.47,2.31s1.32-.07,2.12-1.14,1-1.9.47-2.31S696.78,360.42,695.93,361.57Z"/><path class="cls-76" d="M693.83,374.57c-.84,1.57-1.85,2.15-2.82,1.63s-1-1.61-.19-3.15,1.91-2.07,2.8-1.59S694.61,373.1,693.83,374.57Zm-2.42-1.2c-.64,1.21-.65,2.08-.11,2.36s1.29-.27,1.92-1.45.73-2,.11-2.36S692.08,372.11,691.41,373.37Z"/><path class="cls-77" d="M688.23,376.38h0l-1-.13.22-.51,1.24.17.45.34L686,380.42l-.52-.4Z"/><path class="cls-78" d="M684.13,381.36h0l-1-.13.21-.51,1.24.16.46.34-3.12,4.2-.53-.38Z"/><path class="cls-79" d="M680.8,387.17h0l-1,0,.13-.54,1.25,0,.51.26-2.4,4.66-.57-.3Z"/><path class="cls-80" d="M678.59,395.39c-.65,1.66-1.59,2.34-2.61,1.94s-1.17-1.48-.55-3.1,1.66-2.27,2.6-1.91S679.2,393.84,678.59,395.39Zm-2.54-.91c-.5,1.27-.41,2.14.16,2.36s1.26-.42,1.74-1.67.49-2.1-.16-2.35S676.57,393.15,676.05,394.48Z"/><path class="cls-81" d="M674.31,399h0l-1,.23,0-.55,1.22-.28.55.16-1.47,5-.62-.18Z"/><path class="cls-82" d="M673.69,404.87h0l-.86.49-.13-.54,1.09-.61h.57v5.24h-.65Z"/><path class="cls-83" d="M673.61,410.87h0l-.87.49-.13-.54,1.09-.61h.57v5.24h-.65Z"/><path class="cls-84" d="M675.9,418.25c.55,1.69.26,2.82-.79,3.16s-1.84-.4-2.4-2-.16-2.81.8-3.13S675.38,416.66,675.9,418.25Zm-2.54.92c.42,1.29,1,1.9,1.62,1.71s.7-1.12.29-2.39-1-1.93-1.63-1.71S672.91,417.81,673.36,419.17Z"/><path class="cls-85" d="M677.69,421.87h0l-.75.64-.24-.5.95-.81.56-.11,1,5.14-.64.12Z"/><path class="cls-86" d="M680,427.87h0l-.86.49-.13-.54,1.08-.61h.58v5.24H680Z"/><path class="cls-87" d="M680.76,435.77c0,1.78-.62,2.77-1.73,2.77s-1.62-1-1.64-2.7.72-2.72,1.73-2.72S680.76,434.1,680.76,435.77Zm-2.7.08c0,1.36.4,2.14,1,2.14s1-.85,1-2.19-.31-2.13-1-2.13S678.06,434.43,678.06,435.85Z"/><path class="cls-88" d="M679.84,439.87h0l-.87.49-.13-.54,1.09-.61h.57v5.24h-.65Z"/><path class="cls-89" d="M680.61,447.79c0,1.78-.66,2.76-1.76,2.74s-1.62-1-1.61-2.7.74-2.72,1.75-2.71S680.62,446.12,680.61,447.79Zm-2.7,0c0,1.36.37,2.14,1,2.15s1-.84,1-2.18-.29-2.13-1-2.14S677.92,446.42,677.91,447.84Z"/><path class="cls-90" d="M679.49,454.17c-.41,1.73-1.25,2.54-2.32,2.28s-1.36-1.31-1-3,1.34-2.48,2.32-2.24S679.88,452.55,679.49,454.17Zm-2.64-.55c-.32,1.32-.11,2.16.48,2.31s1.19-.59,1.5-1.89.2-2.15-.48-2.31S677.19,452.23,676.85,453.62Z"/><path class="cls-91" d="M677,457.94h0l-.94.31,0-.55,1.19-.39.56.11-1,5.14-.64-.13Z"/><path class="cls-92" d="M677,465.91c-.14,1.77-.85,2.7-1.94,2.61s-1.55-1.09-1.42-2.81.93-2.66,1.94-2.58S677.13,464.25,677,465.91Zm-2.69-.14c-.11,1.36.22,2.16.83,2.21s1.08-.76,1.19-2.09-.14-2.16-.83-2.21S674.41,464.35,674.3,465.77Z"/><path class="cls-93" d="M674.07,470.87h0l-.87.49-.13-.54,1.09-.61h.57v5.24h-.65Z"/><path class="cls-94" d="M676,476.87h0l-.87.49-.12-.54,1.08-.61h.57v5.24H676Z"/><path class="cls-95" d="M676.92,482.87h0l-.86.49-.13-.54,1.08-.61h.58v5.24h-.65Z"/><path class="cls-96" d="M677.68,490.77c0,1.78-.63,2.77-1.73,2.77s-1.63-1-1.64-2.7.72-2.72,1.73-2.72S677.68,489.1,677.68,490.77Zm-2.7.08c0,1.36.4,2.14,1,2.14s1-.85,1-2.19-.32-2.13-1-2.13S675,489.43,675,490.85Z"/><path class="cls-97" d="M677,494.91h0l-.92.37-.06-.55,1.16-.47.57.08-.67,5.19-.64-.08Z"/><path class="cls-98" d="M676.5,503.09c-.33,1.75-1.14,2.6-2.22,2.39s-1.41-1.25-1.1-3,1.22-2.53,2.21-2.34S676.82,501.46,676.5,503.09Zm-2.66-.43c-.26,1.34,0,2.17.58,2.29s1.16-.64,1.42-1.95.1-2.16-.59-2.29S674.11,501.26,673.84,502.66Z"/><path class="cls-99" d="M675.45,508.77c0,1.78-.63,2.77-1.73,2.77s-1.63-1-1.65-2.7.72-2.72,1.73-2.72S675.45,507.1,675.45,508.77Zm-2.7.08c0,1.36.4,2.14,1,2.14s1-.85,1-2.19-.31-2.13-1-2.13S672.75,507.43,672.75,508.85Z"/><path class="cls-100" d="M675,514.77c0,1.78-.63,2.77-1.73,2.77s-1.63-1-1.64-2.7.72-2.72,1.73-2.72S675,513.1,675,514.77Zm-2.7.08c0,1.36.4,2.14,1,2.14s1-.85,1-2.19-.32-2.13-1-2.13S672.29,513.43,672.29,514.85Z"/><path class="cls-101" d="M671.79,519.08h0l-1,.14.08-.55,1.23-.17.53.22-2,4.86-.6-.25Z"/><path class="cls-102" d="M669.91,524.2h0l-1,0,.14-.54h1.25l.5.28-2.53,4.58-.57-.31Z"/><path class="cls-103" d="M667.67,532.36c-.62,1.67-1.55,2.37-2.58,2s-1.2-1.46-.61-3.09,1.63-2.31,2.57-2S668.25,530.8,667.67,532.36Zm-2.56-.86c-.47,1.27-.37,2.14.2,2.35s1.25-.44,1.72-1.69.45-2.11-.21-2.35S665.61,530.16,665.11,531.5Z"/><path class="cls-104" d="M665.16,535.93h0l-.93.35,0-.56,1.17-.42.57.09-.87,5.17-.64-.11Z"/><path class="cls-105" d="M662.34,543.73c-1,1.47-2.07,1.93-3,1.32s-.81-1.71.15-3.15,2.12-1.86,3-1.29S663.28,542.35,662.34,543.73Zm-2.28-1.45c-.76,1.13-.87,2-.36,2.33s1.31-.13,2.06-1.23.94-2,.37-2.34S660.86,541.1,660.06,542.28Z"/><path class="cls-106" d="M658.41,549.44c-.7,1.63-1.66,2.29-2.68,1.86s-1.12-1.52-.45-3.12,1.73-2.22,2.65-1.83S659.06,547.9,658.41,549.44Zm-2.52-1c-.53,1.26-.47,2.12.09,2.36s1.27-.38,1.8-1.61.54-2.08-.1-2.36S656.45,547.14,655.89,548.45Z"/><path class="cls-107" d="M655.2,555.69c-1,1.5-2,2-3,1.39s-.85-1.69.08-3.15,2.08-1.9,2.93-1.35S656.11,554.29,655.2,555.69Zm-2.31-1.39c-.74,1.14-.82,2-.31,2.34s1.32-.16,2-1.28.89-2,.31-2.34S653.67,553.1,652.89,554.3Z"/><path class="cls-108" d="M651.74,560.48c-1,1.5-2.12,2-3,1.35s-.79-1.73.21-3.2,2.17-1.89,3-1.32S652.7,559.07,651.74,560.48ZM649.47,559c-.79,1.15-.91,2-.41,2.37s1.33-.14,2.1-1.27,1-2,.41-2.37S650.29,557.81,649.47,559Z"/><path class="cls-109" d="M647.61,565.48c-1.08,1.42-2.17,1.82-3.05,1.15s-.71-1.75.33-3.13,2.22-1.73,3-1.12S648.62,564.15,647.61,565.48Zm-2.19-1.57c-.83,1.08-1,1.94-.49,2.31s1.32-.06,2.13-1.12,1-1.89.49-2.31S646.28,562.78,645.42,563.91Z"/><path class="cls-110" d="M643.3,568.21h0l-1-.24.27-.48,1.21.3.42.4L640.62,572l-.47-.44Z"/><path class="cls-111" d="M640.71,575.93c-.51,1.71-1.39,2.47-2.45,2.16s-1.28-1.39-.8-3.05,1.47-2.41,2.44-2.12S641.19,574.34,640.71,575.93Zm-2.61-.69c-.39,1.3-.23,2.16.36,2.33s1.21-.52,1.6-1.8.31-2.13-.36-2.33S638.51,573.87,638.1,575.24Z"/><path class="cls-112" d="M639.69,581.45c0,1.78-.63,2.76-1.73,2.76s-1.63-1-1.64-2.69.72-2.72,1.72-2.72S639.69,579.78,639.69,581.45Zm-2.7.08c0,1.36.4,2.13,1,2.13s1-.84,1-2.18-.32-2.13-1-2.13S637,580.1,637,581.53Z"/><path class="cls-113" d="M639.61,587.45c0,1.78-.63,2.76-1.73,2.76s-1.63-1-1.64-2.69.72-2.72,1.73-2.72S639.61,585.78,639.61,587.45Zm-2.7.08c0,1.36.4,2.13,1,2.13s1-.84,1-2.18-.32-2.13-1-2.13S636.91,586.1,636.91,587.53Z"/><path class="cls-114" d="M639.53,593.45c0,1.78-.62,2.76-1.73,2.76s-1.62-1-1.64-2.69.72-2.72,1.73-2.72S639.53,591.78,639.53,593.45Zm-2.7.08c0,1.36.4,2.13,1,2.13s1-.84,1-2.18-.31-2.13-1-2.13S636.83,592.1,636.83,593.53Z"/><path class="cls-115" d="M639.45,599.45c0,1.78-.62,2.76-1.72,2.76s-1.63-1-1.65-2.69.72-2.72,1.73-2.72S639.45,597.78,639.45,599.45Zm-2.69.08c0,1.36.39,2.13,1,2.13s1-.84,1-2.18-.31-2.13-1-2.13S636.76,598.1,636.76,599.53Z"/><path class="cls-116" d="M639,605.45c0,1.78-.63,2.76-1.73,2.76s-1.63-1-1.64-2.69.71-2.72,1.72-2.72S639,603.78,639,605.45Zm-2.7.08c0,1.36.4,2.13,1,2.13s1-.84,1-2.18-.31-2.13-1-2.13S636.3,604.1,636.3,605.53Z"/><path class="cls-117" d="M636.48,609.63h0l-.94.31,0-.56,1.19-.37.56.11-1.08,5.13-.64-.14Z"/><path class="cls-118" d="M636.84,617.45c0,1.78-.63,2.76-1.73,2.76s-1.63-1-1.64-2.69.72-2.72,1.73-2.72S636.84,615.78,636.84,617.45Zm-2.7.08c0,1.36.4,2.13,1,2.13s1-.84,1-2.18-.32-2.13-1-2.13S634.14,616.1,634.14,617.53Z"/><path class="cls-119" d="M634.16,621.58h0l-.92.38-.06-.55,1.15-.47.57.07-.63,5.19-.65-.07Z"/><path class="cls-120" d="M635.68,629.45c0,1.78-.62,2.76-1.72,2.76s-1.63-1-1.65-2.69.72-2.72,1.73-2.72S635.68,627.78,635.68,629.45Zm-2.69.08c0,1.36.39,2.13,1,2.13s1-.84,1-2.18-.31-2.13-1-2.13S633,628.1,633,629.53Z"/><path class="cls-121" d="M634.76,633.55h0l-.87.49-.13-.54,1.09-.61h.57v5.23h-.65Z"/><path class="cls-122" d="M635.53,641.45c0,1.78-.63,2.76-1.73,2.76s-1.63-1-1.64-2.69.72-2.72,1.72-2.72S635.53,639.78,635.53,641.45Zm-2.7.08c0,1.36.4,2.13,1,2.13s1-.84,1-2.18-.32-2.13-1-2.13S632.83,640.1,632.83,641.53Z"/><path class="cls-123" d="M635.56,645.54h0l-.85.51-.15-.53,1.08-.64h.57l.11,5.23-.65,0Z"/><path class="cls-124" d="M638,653.33c.12,1.78-.44,2.8-1.54,2.88s-1.69-.85-1.82-2.57.53-2.77,1.54-2.84S637.87,651.67,638,653.33Zm-2.69.27c.09,1.36.54,2.1,1.15,2.06s1-.91.87-2.25-.46-2.11-1.16-2.06S635.2,652.17,635.3,653.6Z"/><path class="cls-125" d="M636.67,657.55h0l-.74.66-.24-.5.94-.82.56-.12,1.07,5.13-.64.13Z"/><path class="cls-126" d="M637.66,663.55h0l-.77.63-.22-.51,1-.79.56-.1.9,5.16-.64.11Z"/><path class="cls-127" d="M639.56,669.55h0l-.77.64-.22-.51,1-.8.56-.1.94,5.15-.64.12Z"/><path class="cls-128" d="M642.67,677.29c.17,1.77-.36,2.81-1.46,2.91s-1.71-.8-1.89-2.52.45-2.78,1.46-2.87S642.51,675.63,642.67,677.29Zm-2.68.33c.13,1.36.6,2.09,1.21,2s.93-.93.8-2.27-.51-2.09-1.21-2S639.85,676.21,640,677.62Z"/><path class="cls-129" d="M643.6,683.45c0,1.78-.62,2.76-1.73,2.76s-1.62-1-1.64-2.69.72-2.72,1.73-2.72S643.6,681.78,643.6,683.45Zm-2.7.08c0,1.36.4,2.13,1,2.13s1-.84,1-2.18-.31-2.13-1-2.13S640.9,682.1,640.9,683.53Z"/><path class="cls-130" d="M642.28,687.55h0l-.74.66-.24-.5.94-.82.56-.12,1.07,5.13-.64.13Z"/><path class="cls-131" d="M643.6,693.55h0l-.87.49-.13-.54,1.09-.61h.57v5.23h-.65Z"/><path class="cls-132" d="M680.82,509.76c.73,1.62.56,2.78-.44,3.23s-1.88-.2-2.61-1.78-.46-2.78.46-3.19S680.13,508.24,680.82,509.76Zm-2.43,1.18c.56,1.24,1.24,1.79,1.8,1.54s.58-1.19,0-2.41-1.17-1.82-1.8-1.54S677.8,509.64,678.39,510.94Z"/><path class="cls-133" d="M681.73,513.92h0l-.32.93-.46-.31.41-1.18.43-.38,3.46,3.93-.49.43Z"/><path class="cls-134" d="M685.7,517.88h0l-.35.93-.45-.33.45-1.17.44-.36,3.34,4-.5.42Z"/><path class="cls-135" d="M692.3,523.35c1.17,1.34,1.35,2.49.52,3.22s-1.85.35-3-.94-1.25-2.52-.5-3.19S691.2,522.1,692.3,523.35Zm-2,1.84c.9,1,1.71,1.34,2.17.94s.21-1.31-.68-2.31-1.64-1.4-2.16-.94S689.38,524.12,690.32,525.19Z"/><path class="cls-136" d="M696.14,527.27c1.26,1.26,1.51,2.4.73,3.18s-1.83.47-3.06-.74-1.42-2.44-.7-3.15S695,526.09,696.14,527.27Zm-1.85,2c1,1,1.79,1.23,2.22.8s.12-1.32-.82-2.27-1.73-1.29-2.22-.8S693.28,528.23,694.29,529.24Z"/><path class="cls-137" d="M698.41,530.55h0l-.76.63-.22-.5,1-.8.56-.1.92,5.16-.64.11Z"/><path class="cls-138" d="M700.52,538.45c0,1.78-.63,2.76-1.73,2.76s-1.63-1-1.64-2.69.72-2.72,1.73-2.72S700.52,536.78,700.52,538.45Zm-2.7.08c0,1.36.4,2.13,1,2.13s1-.84,1-2.18-.32-2.13-1-2.13S697.82,537.1,697.82,538.53Z"/><path class="cls-139" d="M698.7,542.56h0l-.89.44-.1-.54,1.12-.56.57,0-.28,5.23-.65,0Z"/><path class="cls-140" d="M699,550.13c0,1.78-.63,2.76-1.73,2.76s-1.63-1-1.64-2.69.72-2.73,1.73-2.73S699,548.46,699,550.13Zm-2.7.08c0,1.36.4,2.13,1,2.13s1-.84,1-2.18-.32-2.14-1-2.14S696.3,548.78,696.3,550.21Z"/><path class="cls-141" d="M697.49,554.26h0l-.67.73-.29-.48.85-.9.55-.17,1.56,5-.62.2Z"/><path class="cls-142" d="M699.53,560.24h0l-.72.68-.25-.49.91-.85.55-.14,1.25,5.09-.63.15Z"/><path class="cls-143" d="M701.66,566.22h0l-.79.6-.2-.51,1-.76.57-.07.71,5.18-.64.09Z"/><path class="cls-144" d="M703.69,574.13c0,1.78-.63,2.76-1.73,2.76s-1.63-1-1.64-2.69.72-2.73,1.72-2.73S703.69,572.46,703.69,574.13Zm-2.7.08c0,1.36.4,2.13,1,2.13s1-.84,1-2.18-.32-2.14-1-2.14S701,572.78,701,574.21Z"/><path class="cls-145" d="M704.61,580.13c0,1.78-.63,2.76-1.73,2.76s-1.63-1-1.64-2.69.72-2.73,1.73-2.73S704.61,578.46,704.61,580.13Zm-2.7.08c0,1.36.4,2.13,1,2.13s1-.84,1-2.18-.32-2.14-1-2.14S701.91,578.78,701.91,580.21Z"/><path class="cls-146" d="M703.06,584.27h0l-.67.74-.29-.47.84-.92.54-.18,1.65,5-.61.21Z"/><path class="cls-147" d="M708.35,590.6c.56,1.69.27,2.82-.78,3.17s-1.84-.41-2.4-2-.16-2.81.79-3.12S707.83,589,708.35,590.6Zm-2.54.92c.43,1.29,1.05,1.91,1.63,1.71s.7-1.12.28-2.39-1-1.93-1.62-1.71S705.37,590.16,705.81,591.52Z"/><path class="cls-148" d="M711.84,595.46c.7,1.64.52,2.79-.49,3.22s-1.88-.23-2.58-1.81-.42-2.79.51-3.19S711.17,593.93,711.84,595.46Zm-2.45,1.15c.54,1.25,1.21,1.8,1.77,1.56s.6-1.18.07-2.41-1.13-1.84-1.77-1.56S708.83,595.3,709.39,596.61Z"/><path class="cls-149" d="M712.07,599.4h0l-.5.86-.38-.4.63-1.07.5-.29,2.61,4.54-.56.32Z"/><path class="cls-150" d="M715.28,604h0l-.06,1-.52-.18.08-1.25.31-.48,4.38,2.87-.35.55Z"/><path class="cls-151" d="M720.4,607.74h0l-.21,1-.49-.27.27-1.21.38-.43,3.91,3.49-.44.48Z"/><path class="cls-152" d="M725.67,614c.19,1.77-.33,2.81-1.43,2.93s-1.72-.78-1.92-2.51.43-2.78,1.44-2.88S725.49,612.29,725.67,614Zm-2.68.36c.15,1.36.62,2.08,1.23,2s.92-1,.78-2.28-.53-2.09-1.22-2S722.84,612.89,723,614.31Z"/><path class="cls-153" d="M726.59,620c.19,1.77-.33,2.81-1.42,2.93s-1.72-.78-1.92-2.5.42-2.79,1.42-2.89S726.41,618.29,726.59,620Zm-2.67.36c.14,1.36.62,2.08,1.23,2s.92-1,.77-2.28-.53-2.09-1.23-2S723.76,618.9,723.92,620.31Z"/><path class="cls-154" d="M726.4,623.22h0l-.78.61-.21-.51,1-.77.56-.08.77,5.18-.64.1Z"/><path class="cls-155" d="M727.16,629.23h0l-.73.67-.25-.5.92-.84.56-.13,1.18,5.11-.64.14Z"/><path class="cls-156" d="M730.87,636.55c.61,1.67.37,2.81-.67,3.19s-1.86-.34-2.47-2-.26-2.81.68-3.15S730.29,635,730.87,636.55Zm-2.5,1c.47,1.28,1.11,1.87,1.68,1.66s.66-1.14.2-2.4-1-1.9-1.68-1.66S727.87,636.22,728.37,637.55Z"/><path class="cls-157" d="M733.7,641.36c.82,1.58.72,2.74-.26,3.24s-1.89-.1-2.7-1.63-.62-2.75.28-3.21S732.93,639.87,733.7,641.36Zm-2.36,1.31c.63,1.21,1.34,1.71,1.88,1.43s.51-1.22-.1-2.41-1.26-1.75-1.88-1.43S730.68,641.4,731.34,642.67Z"/><path class="cls-158" d="M736.61,646.33c.84,1.56.76,2.73-.21,3.25s-1.89-.07-2.72-1.58-.67-2.74.22-3.22S735.81,644.86,736.61,646.33Zm-2.34,1.36c.65,1.19,1.37,1.68,1.91,1.39s.49-1.23-.15-2.4-1.29-1.73-1.9-1.4S733.59,646.43,734.27,647.69Z"/><path class="cls-159" d="M740.51,651.29c.88,1.55.83,2.71-.13,3.26s-1.89,0-2.76-1.52-.73-2.72.14-3.22S739.68,649.85,740.51,651.29Zm-2.3,1.42c.67,1.18,1.4,1.65,1.93,1.35s.46-1.24-.2-2.4-1.33-1.7-1.94-1.35S737.5,651.47,738.21,652.71Z"/><path class="cls-160" d="M742.2,655.87h0l-.13,1-.51-.22.16-1.24.35-.46,4.19,3.13-.39.52Z"/><path class="cls-161" d="M746.74,659.4h0l-.5.86-.38-.4.63-1.08.49-.29,2.65,4.52-.56.33Z"/><path class="cls-162" d="M751.51,666c.14,1.77-.41,2.8-1.51,2.88s-1.69-.83-1.84-2.55.51-2.77,1.51-2.85S751.39,664.33,751.51,666Zm-2.68.28c.11,1.36.56,2.1,1.17,2.05s1-.92.85-2.25-.48-2.1-1.17-2.05S748.72,664.86,748.83,666.28Z"/><path class="cls-163" d="M751.23,670.23h0l-.76.64-.23-.5.95-.81.57-.11,1,5.15-.64.12Z"/><path class="cls-164" d="M753.91,677.67c.48,1.72.14,2.83-.92,3.13s-1.83-.49-2.31-2.15,0-2.82.94-3.09S753.46,676.07,753.91,677.67Zm-2.58.81c.37,1.31,1,1.95,1.55,1.78s.75-1.09.39-2.37-.87-2-1.54-1.79S751,677.1,751.33,678.48Z"/><path class="cls-165" d="M755.86,683.78c.37,1.74,0,2.83-1.12,3.06s-1.79-.6-2.16-2.3.14-2.81,1.13-3S755.52,682.15,755.86,683.78Zm-2.62.63c.28,1.34.83,2,1.43,1.89s.82-1,.54-2.35-.74-2-1.42-1.88S753,683,753.24,684.41Z"/><path class="cls-166" d="M756.82,690c.16,1.77-.38,2.81-1.48,2.9s-1.71-.81-1.87-2.54.48-2.77,1.48-2.86S756.68,688.32,756.82,690Zm-2.68.31c.12,1.36.58,2.1,1.19,2s.94-.93.82-2.26-.49-2.1-1.19-2S754,688.87,754.14,690.29Z"/><path class="cls-167" d="M757.75,696.13c0,1.78-.62,2.76-1.72,2.76s-1.63-1-1.65-2.69.72-2.73,1.73-2.73S757.75,694.46,757.75,696.13Zm-2.69.08c0,1.36.39,2.13,1,2.13s1-.84,1-2.18-.31-2.14-1-2.14S755.06,694.78,755.06,696.21Z"/><path class="cls-168" d="M756.28,700.32h0l-1,.28V700l1.2-.35.56.13-1.2,5.1-.63-.15Z"/><path class="cls-169" d="M756.59,708.36c-.25,1.76-1,2.65-2.09,2.5s-1.48-1.18-1.26-2.9,1.09-2.59,2.09-2.45S756.82,706.71,756.59,708.36Zm-2.68-.29c-.19,1.34.09,2.16.7,2.25s1.12-.7,1.31-2,0-2.16-.7-2.26S754.1,706.65,753.91,708.07Z"/><path class="cls-170" d="M754.33,712.33h0l-1,.26V712l1.21-.32.55.14-1.3,5.07-.63-.16Z"/><path class="cls-171" d="M754.42,720.47c-.36,1.74-1.18,2.58-2.25,2.35s-1.4-1.26-1.07-3,1.26-2.52,2.25-2.32S754.76,718.83,754.42,720.47Zm-2.66-.47c-.28,1.33,0,2.17.56,2.3s1.16-.63,1.43-1.94.13-2.15-.55-2.29S752.05,718.6,751.76,720Z"/><path class="cls-172" d="M1002,459.37c1.5,4.91,3,8.39,3.59,12,1.26,7.4,2,14.89,3.07,22.31,1.2,7.93,5.09,14.46,10.67,20.15,4.37,4.46,8.34,9.23,5.78,14.87l23.61,20.16c-.71-6.85,3.75-6,7.86-5.2,9,1.66,11.83,4.75,13.91,13.64,2,8.68,2.6,17.35,0,25.92-.81,2.7-3,5-5.43,7.13-1.77-9.49-1-19-6.75-26.93,1.6,12.93,7.37,25.64,2.11,37.72,3,2.18,6.45,3.65,8.1,6.26a13.08,13.08,0,0,1,1.23,9c-3.16,14.32-22.18,26.07-36.47,23.93-7.25-1.08-14.82.23-22.21-.21-7.78-.46-15.78-.89-22-6.8-.4-.38-1-.92-1.44-.85-12.65,2.14-22.67-4-32.94-10C941.8,615,926.83,616,912.8,613c-17.69-3.74-35.31-.49-52.95-.79-10.32-.18-14.59-3.49-15.2-13.62-.29-4.69-1.07-9.34-1.73-14.86-11.87-4.6-13.48-8.19-6.93-18.56l-4.08-6.53c-5.67,4.26-9.87,3.29-12.83-3.33-3.06-6.84-5.66-13.9-8.84-20.68-.68-1.45-3.15-2-4.52-3.22a8.65,8.65,0,0,1-2.42-3.67c-.56-1.84.12-4.43-.93-5.71a49,49,0,0,1-10.61-24.18c-.17-1.08-1.17-2.05-1.85-3a57.05,57.05,0,0,0-6.64-8.3c-2.68-1.79-6.49-3-7.86-5.47-7.73-14.16-19.27-24.53-31.67-34.32-2.71-2.13-4.06-6-6-9.07-.35-.55-.57-1.64-.93-1.68-5.93-.63-5.07-5.41-6.54-9.35-3.16-8.53-7.59-16.58-11.38-24.87-3.06-6.68-3-8.27.42-13.9,2,1.44,4.3,2.6,6,4.32,4.7,4.78,9.08,9.89,13.77,14.68a19.25,19.25,0,0,0,5.85,4.22c8.54,3.7,8.58,3.6,7.12,12.36,5.62-5.84,9.45-5.32,13.12,2.16,3.07,6.26,5.69,12.75,8.65,19.07a30.46,30.46,0,0,0,3.05,4.38l1.63-.35c-.24-1.45-.16-3-.77-4.32-1.84-3.84-3-7.23-2-12,1.13-5.12.26-11-1.06-16.24a171.17,171.17,0,0,0-7.56-21.71c-3.34-8.3-2-11.13,6.8-12.46a26.94,26.94,0,0,0,2.76-.74c-.21-.63-.26-1.15-.41-1.18-3.13-.66-7.45,1.05-8.48-3.87-.94-4.49,2.11-6.43,5.53-8.36,1.58-.89,2.49-3,3.65-4.59,4.75-6.59,9.35-13.29,14.3-19.72,1-1.35,3.33-1.74,5-2.57.68,2,2,4,1.92,6-.5,9.08-.94,18.2-2.41,27.15-.47,2.9-4,5.29-5.75,7.43.94,2.75,3.19,6.24,3.14,9.7-.18,11.32.84,22,5.8,32.63,2.17,4.65-.18,11.41-.56,18.68,4.63,3.22,6.61,9.49,5.43,17.23-.34,2.2.9,4.7,1.66,7,.56,1.72,2.16,3.31,2.18,5,.09,10.76,9.3,12.93,16.13,18.15,3.6-7.18-1.15-12.45-2.51-18.24-.68-2.91-.5-6-.59-9.33,0-3.15-.86-6.62.16-9.39,3.47-9.36,7.45-18.53,6.65-28.82-.37-4.66-1.33-9.3-1.36-13.95,0-3.22.07-7.67,2-9.34s6.42-1,10.2-1.35c-1.2-1.48-2.94-3.65-5.19-6.45,5.23-10.77,13.42-20.06,22.31-28.73,1.49-1.46,4.68-1.19,7.09-1.72.43,2.26,1.51,4.63,1.15,6.76-.8,4.79-2.41,9.45-3.49,14.21-.53,2.34-1.15,4.86-.81,7.17,1.22,8.42,0,10.25-8.44,11.42a19.76,19.76,0,0,0-2.42.69c8.23,5,8.43,7.3,5.89,16.68-1.92,7.11-2.33,14.68-2.91,22.09-.54,6.84,2.79,14.41-4.07,19.6.77,9.46,1.52,18.7,2.27,27.93l2,.42a53.17,53.17,0,0,0,14.94-21.8c.73-1.89,1-4,2-5.73,3.35-5.88,8.1-6.19,12.73-1.53,1.27-3.5,1.72-8.08,4.21-10.75s7-3.62,10.74-5.07c5.86-2.29,11.82-4.31,17.7-6.55,5.73-2.18,10.78-2.18,14.43,4.64,1.34-7.31,6.37-6.39,10.66-5.13a172.06,172.06,0,0,1,18.08,6.92c1,.43,2.41,2.49,2.14,2.95-.93,1.62-2.33,3.82-3.86,4.09-7.15,1.29-14.49,1.27-20.38,6.88-2.09,2-6.87-2-6.83-5.53,0-2,.45-3.95.14-6.35.42,11.68-9.37,11.7-16.22,15.13-2.6,1.3-4.71,3.54-7.3,4.86-4.5,2.28-9.19,4.17-14.08,6.34-.86,1.82-1.71,5.19-3.73,7.56-6,6.94-12.52,13.17-13.87,23.12-.34,2.53-4.69,4.52-8.29,7.73,2.34.32,3.91.66,5.49.72,3.33.13,7.1-.88,9.93.35,8.93,3.86,17.38,8.79,26.24,12.83,13.89,6.34,27.93,12.48,43.86,9,4.54-1,7.87.73,10.72,4.12,1.34,1.58,3,2.91,5.15,5,1.87-7.78-3.36-17.77,8.68-19.82.6-2.06,1.08-4.45,2-6.68,5.31-13.62,3.54-26.37-4.72-38.26-5-7.23-4.39-11.7,2.61-16.71-2.55-1.06-6.09-1.46-7.51-3.41-1.59-2.17-1.75-5.76-1.68-8.71.27-11.55-5-20.63-11.94-29.26-7.21-9-7.1-11.16-.82-20.07-2.37-1.23-5.55-1.9-7-3.85-1.61-2.23-2.06-5.57-2.27-8.49-.67-9.24-4.9-16.39-11.75-22.39-2-1.77-4.54-4.23-4.76-6.57-.64-6.72-.23-13.53-.23-20.25,10.85-.18,15.91,5,19.8,12.21,4,7.34,6.42,16.43,15.7,20.37,3.67,1.56,6.65,5.31,9.29,8.59,2.84,3.54,2.77,7.54-1,11.06,2.15,1.77,4.29,3.28,6.1,5.11,5.08,5.14,9,10.25,10.81,18.17,2.44,10.65,8.51,20.54,13.53,30.49C1005.6,453.61,1005.92,453.45,1002,459.37Zm-32,108c-3.62-1.74-4.9,1-5.5,3.44a7.41,7.41,0,0,0,1.25,5c1.6,2.54,3.78,4.69,5.59,7.1,6,8,16.64,9.12,23.75,2.05a27.11,27.11,0,0,0,5.81-8.43c.7-1.65.19-5-1.07-6.09a140.64,140.64,0,0,0-16.54-12.33c-6.2-3.88-13.53,1.44-13.36,9.3Zm-1.32,37.94-.12-.16c2.64.94,5.35,1.74,7.91,2.86,11.3,4.92,22,3.63,32.37-2.7,5.27-3.22,6.95-7.43,4.42-12.75-2.29-4.83-5.13-9.39-7.88-14.34-6.38,4.94-8.42,15.58-17.64,15-7.37-.49-14.52-4.17-22.53-6.66.61-.47-.16.12-.93.7l-1.5-1.67,4.09-2.55-4.52-6.46c-2.6,8-1.61,14.4.3,20.76C963.67,600.67,963.91,604.68,968.68,605.26Zm-83.6-31.52.92.25c-.22,1.78-.45,3.56-.63,5a23.77,23.77,0,0,1,4.28.59c5.28,1.79,10.37,4.34,15.77,5.44a234.54,234.54,0,0,0,28.27,4.12c4.68.38,8.5,1.17,12.1,4.36a14,14,0,0,0,8,3.57c1.78,0,5.06-2.72,5.23-4.47.78-7.64.66-15.37.87-23.5-8.47-.42-18.12-.54-27.7-1.44-23.12-2.16-45.1-8.27-65.41-19.84-4.32-2.46-9.56-3.93-12.95-7.3-6.53-6.46-12.42-6-15.41,2.79-1.71,5-4.42,12.09-2.29,15.52,3,4.85,10,9.8,15.41,10,7.93.27,14.62,1.58,21.15,5.81,3,1.93,6.52,3,10.16,4.63.47-1.26.78-2.15,1.14-3S884.72,574.57,885.08,573.74Zm65.53-28.58-1.11.22c-2.91-2.17-5.71-6-8.75-6.22-18.26-1.2-34-8.75-49.46-17.61-4.69-2.69-10-4.39-15.27-5.89-1.83-.53-5.11.24-6.12,1.6s-.24,4.32-.24,5.26c-2,2.67-4.48,4.73-5.28,7.31-1.26,4.06,2.75,8,8.44,9.11,6,1.13,12.27,1.27,17.88,3.33,20.18,7.37,40.15,15.31,60.14,23.17,4.38,1.72,7.51,1.65,11.4-2,2.54-2.39,4-7.19,9-6.66.11-1.82,1-4.47.18-5.33-4.7-4.69-9.83-8.94-14.88-13.39L955.25,540c-1.6-.47-2.83-1.27-3.54-.94a11.56,11.56,0,0,0-2.82,2.45Zm42.56-10.08c7.78-1.08,15.57-2,23.27-3.4,1.34-.25,3.43-3.06,3.17-4.23a83.46,83.46,0,0,0-4.61-14c-2.5-5.91-6.46-11.37-8-17.47-2.27-8.77-3.09-17.92-4.24-26.94-.41-3.15-1.44-4-4.67-3.76-5.35.39-10.76-.13-16.13.08-2.9.12-8,.48-8.22,1.61A15.17,15.17,0,0,0,974.89,477c5.74,10.18,9.05,20.59,7.27,32.46-.69,4.6-.11,9.4-.11,14.54l7-.63c.14.35.27.7.4,1.05l-4.58,1.94.31.87,12.4-3Zm-31-115.41c0,1.87-.58,5,.11,7.9,2.13,8.82,4.69,17.55,7.23,26.28.41,1.42,1.21,3.17,2.37,3.86,3.07,1.82,6.46,3.07,9.67,4.66,5.13,2.55,13,1.85,16.72-1.82,3.37-3.29,4-7.69,1.27-11.14-9-11.31-8.38-28.36-23.42-36.76,6.06-.53,7-1.89,4.59-5.21a79.13,79.13,0,0,0-8.53-9.59c-4.21-4.1-8.86-3.33-14.47,2-5.39,5.15-6,8.85-2.23,13.46l-2.83.15-.43,1.47ZM844.44,588.24l6.66,9.13-1.49-.21c-.35,2.11-1.74,5-.85,6.21,2.93,3.87,6.47,7.09,12.24,6.57,7.84-.69,15.78-1.4,23.61-.93,15.78,1,31.55,2.46,47.26,4.25a100.92,100.92,0,0,1,21.3,4.55c8.57,3,16.57,7.51,25.07,10.69,6.59,2.47,11.19.13,15.94-8.19-8.8,7.22-14.6,3.25-20-2-3.59-3.49-6.88-7.31-9-9.6-3.7.36-6.1,1.06-8.36.74-7.14-1-14.21-2.44-21.31-3.68-6.54-1.15-13.16-2-19.61-3.5-10.84-2.55-21.54-5.72-32.38-8.28s-21.66-4.78-32.54-6.93C849.4,586.78,847.58,587.65,844.44,588.24Zm194.39-40.44c.21,2.42-.17,5.14.74,7.33,3.41,8.21-1.74,15.9-9.4,18.23-4.6,1.39-9.55,1.6-14.27,2.63-5.3,1.15-6.49,3.58-4.09,8.29a130.75,130.75,0,0,0,7,12.19c5.26,8,16.22,10,24.79,5.32a16.54,16.54,0,0,1,9.8-1.6c4.29.66,5.41-.86,5.8-4.6,1.31-12.53-2.11-24.15-6.76-35.51a13.66,13.66,0,0,0-3.82-4.7C1045.6,552.83,1042.41,550.56,1038.83,547.8Zm-30.41-5.49c-2.52-2.75-2.53-2.8-8.41-1.84-2.4.4-5.19,2.18-7,1.44-6.42-2.57-14-3.32-17.3-11.37-1.37-3.39-4.24-2.41-5.46,1.11-2.31,6.65,2.17,16.58,8.4,19.76,6.45,3.29,13.74,6,18.7,10.94,9.94,9.9,20.79,8.6,32.13,4.93,2.16-.7,4.58-4.21,4.82-6.63.78-7.92-1.85-15.13-6.38-21.73-2.54-3.7-5.27-5.7-9.57-3.08C1015,537.87,1011.77,540.1,1008.42,542.31ZM852.55,515.67c1.06-6.26-3.19-8.23-7-10.38-9.86-5.6-20.15-10.54-29.59-16.77-6.34-4.17-11.53-10.08-16.43-14.49-2,.49-3.89.41-5,1.31-9.25,7.7-8.94,14.54,1.07,21.42,4,2.74,8.44,4.83,12.62,7.31,5.57,3.32,11.3,6.44,16.57,10.2,5.1,3.65,9.24,10.28,14.66,11.37s11.16,1.36,17.23,4l-.76-4.92c6.43,1,9.54-3,9.08-11.52l-10.35-1.92-.33,1.62,3.45,1c0,.3,0,.6-.05.91Zm209.39,91.41c-2.29,2.14-3.9,4.82-6.15,5.57-14.42,4.77-28.23,15-44.53,5.9-.66-.37-2,.09-2.85.57-5.88,3.54-11.69,7.19-18.6,11.47,3.43,2.09,5.2,4,7.16,4.22,9.34,1,18.55,4.81,28.19,1.61a9.36,9.36,0,0,1,5.4.3c11.59,3.67,20.79-1.38,29.1-8.37C1066.26,622.79,1067,612.85,1061.94,607.08ZM759.55,421.68c-5.84,5.68-9.94,10.58-14.95,14.25-4.63,3.39-5.34,4.81-.77,8.38,1.56,1.22,3.7,1.67,5.33,2.81,3.76,2.63,8.11,4.87,10.89,8.33,5.93,7.39,11,15.47,16.48,23.23,3.45,4.89,5.85,4.69,8.73-.32a17.13,17.13,0,0,1,4.23-4.93c5.75-4.42,5.71-8.67-.39-12.76a32.24,32.24,0,0,0-4.69-2.85c-11.24-5-16.38-14.43-19.48-25.71C763.89,428.31,761.28,424.94,759.55,421.68Zm88.78,36.75c.51-2.95,1.25-5.07,1.16-7.16-.21-5.26-1.6-10.59-1-15.72.73-6.56,2.88-13,4.49-19.41,1-4.08,1.3-7.76-3.82-9.3-4.58-1.38-9.26-2.54-13.68-4.32-4-1.61-6-.3-6.34,3.5a47.38,47.38,0,0,0,.15,10.31c1.6,12.6,2.93,25.09-4.39,36.64-.81,1.28-.81,3.06-1.36,5.28C839.36,451.66,839.36,451.66,848.33,458.43ZM788.9,435.35c-3,.34-4.53.1-5.53.71a28.58,28.58,0,0,0-4.17,3.86c1.53,1.16,3,3.17,4.59,3.32,9,.85,16.86-8.62,13-17.14-5.49-12-6.62-24.12-6.14-36.86.06-1.66-2.08-4.85-3.2-4.85A98.78,98.78,0,0,0,769.75,386c-.54.09-1.09,5.34-.08,7.46,1.41,3,4.29,5.22,6.76,8-5.43,6.35,1.75,12.51,1.22,19.18C777.1,427.62,781.91,431.57,788.9,435.35ZM959.66,599.78c-3.91-.4-6.55-.25-8.89-1-4.56-1.47-8.82-4-13.44-5.09-9.22-2.14-18.75-3-27.9-5.43-14.88-3.88-29.58-8.46-44.3-12.93-7.84-2.38-15.49-5.39-23.35-7.67-4.4-1.27-5.29,2.63-6.28,5.68-1.3,4,1.42,6,4.46,6.5,4,.63,8.23.15,11.12.15,1.63,2.58,2.29,5.06,3.62,5.49,6.69,2.16,13.58,5.4,20.34,5.27,15.1-.3,29.94.3,44.71,3.48,4.34.94,8.87.95,13.38,1.39,0,.41-.17,2.17.28,2.36,6.71,2.84,13.45,5.61,20.31,8,1.91.68,4.22.23,6.34.3C959.93,604.06,959.79,601.81,959.66,599.78Zm13.08-215.06c-4.19-4.47-6.68-9-10.46-10.81-10.49-5-14.51-14.44-18.77-24.05a13.72,13.72,0,0,0-5-5.88c-2.33-1.43-5.37-1.7-8.1-2.48-.21,3.12-.42,6.24-.59,9.37,0,.33.32,7.63.45,8.1.3,1.11.45,2.61,1.23,3.18,9.86,7.25,14,17.28,15,29.12.45,5.11,4.38,6.41,8.68,3.76,3-1.84,6.47-2.84,9.54-4.56C967.14,389.15,969.21,387.3,972.74,384.72ZM796,498.93l-1.69,1.38c1,1.55,2.15,3.05,3.08,4.66,5.46,9.42,11,18.81,16.28,28.33,2.86,5.13,7,9.6,6.1,16.57-.32,2.5,3.12,7.1,5.77,8,4.77,1.61,4-3.69,5-6.4,2.63-7,5.13-14.1,8.18-22.56L811,508.4l-1.24,1.68,6,4.5-4.84.22c.73,1.43,1.26,2.49,1.8,3.54l-1.16.86Q803.8,509.06,796,498.93ZM889.22,476c-3.61-4.63-5.67-7.55-8-10.21A82.75,82.75,0,0,0,875,460.1a88.3,88.3,0,0,0-5.43,7.4c-1.09,1.83-1.39,4.12-2.3,6.09-4.72,10.2-17.32,16.59-14.54,30.39a57.81,57.81,0,0,1,6.9,1.77c6,2.26,10,.33,12-5.59,1.81-5.31,4.06-10.47,6.15-15.79H873Zm-40.29,26.61a37,37,0,0,0,0-3.81c-1-9.14-2.78-18.28-2.73-27.42,0-5.13-1.23-8.42-4.87-11.5s-6.73-1.16-9.9.77c-1.55.95-3.09,1.95-4.72,2.75-3.7,1.81-4.68,4.07-3.14,8.3,2.22,6.09,3.41,12.56,5.39,20.22ZM916,444.22l0,1.62c-8.11,1-16.35,1.44-24.27,3.28-2.7.63-6.49,4.76-6.46,7.25.06,4.78,1.18,10.89,7.27,12,2.85.51,8.17-1.08,9-3.11,2.75-6.67,7.5-7.24,13.56-7.81,3.26-.3,7.23-3,9-5.83,1.5-2.37.32-6.45.33-9.77-3.83,0-7.66,0-11.49,0a1.74,1.74,0,0,0-1.12.42c-.2.2-.15.66-.26,1.26Zm23.56,121.32C927,559.64,916,553.61,904.39,549.3c-9.18-3.41-19.17-4.63-28.75-7-3.75-.93-8.23-1.42-10.84-3.79-3.36-3.07-5.76-3.11-9.27-.18C881.34,552.69,908.4,563.11,939.56,565.54Zm74.67,52.53c2.67.49,6.41,2.25,9.64,1.58A204.64,204.64,0,0,0,1050,612.3c3-1,9.35-.85,7.18-6.37-.76-2-6.82-1.86-10.48-2.65a1.75,1.75,0,0,0-1.15.31c-10,6.23-19.11,3.77-27.23-2.49C1017.07,606.25,1015.83,611.4,1014.23,618.07ZM725.93,406.34l1.33-.46c1.57,4,3.44,8,4.62,12.12s1.53,8.47,2.55,12.64c.16.67,1.94,1.37,3,1.34,7.79-.28,13.77-6.77,13-14.21-.14-1.18-2-3.26-2.71-3.13-5.62,1-7.81-3.3-10.77-6.42-5.21-5.47-10.38-11-15.57-16.45l-2.46,1.61,6.66,16.6,1.17-.46Zm135.74-41.23c-1.09-.11-1.69-.34-1.85-.17-5.72,6.17-11.45,12.34-17,18.66-.51.58-.21,2.45.35,3.3,1.91,2.89,2.29,4.49-2.16,4.35-.73,0-2.48,3.32-2.15,3.69,1.74,2,5,5.4,5.9,4.91,4.06-2.17,10.82,2.21,12.43-4.58.43-1.82-2.07-4.34-3.39-6.84C859.5,382,861.32,373.84,861.67,365.11ZM784.8,370c4.1-5.51,9.5-9.27,6.86-16l2.21,3.42c.85-5.21,1.48-9,2.1-12.86l-1.53-.69A48.64,48.64,0,0,0,780,365.37c-1.33,4.17-2.62,5.7-6.44,6.57-1.3.29-2.19,2.47-3.26,3.79,1.36.8,2.69,2.22,4.09,2.28a72.21,72.21,0,0,0,12.39-.36c6.26-.79,7.31-3.21,4.43-9.56ZM804,473.53c-1.07-7.33-2.11-14.82-3.29-22.28-.44-2.83-.84-5.93-5.06-5.21-3,.5-6,.77-8.93,1.54a40.86,40.86,0,0,0-6.11,2.72c1.59,1.63,2.92,3.69,4.81,4.8,6,3.55,12.55,6.53,11.44,14.88ZM971.84,610.42c2.62,3,4.86,6.47,8,8.78,2.06,1.52,5.44,2.08,8.1,1.8,4.36-.45,8.58-2.12,12.92-2.93,8.17-1.53,13.68-6.57,13.87-13.3C1001.31,613.15,987.46,617.28,971.84,610.42Zm95.52-27c4.22-10.62,2.88-21.28-.94-31.13-1.2-3.09-9.23-6.72-11.78-5.43-5,2.52.42,6.73,1.69,10.2a5.24,5.24,0,0,0,1.13,1.44C1063.74,565.53,1069.45,572.83,1067.36,583.39ZM953.79,449.28c0-.65.07-1.29.11-1.94-5.11-.39-8.83-6.83-15-2.83l-3.13-4.92c-5,2.24-6,8.48-2.31,17.12l3-4.8Zm-57.86,142.8-.63,2.48c14,1.13,26.17,10.46,40.85,8.6.15-.67.3-1.34.46-2Z"/><path class="cls-173" d="M1135.41,624.74l-9.51,4.54c3.51,1.58,5.9,4.82,11.16,2.59s11.39-2.43,17.1-3.69c1.27-.28,2.38-1.27,3.5-1.89.17.92.41,2.29.47,2.67-9.22,2.94-18.25,5.86-27.31,8.67-2.1.66-4.64,1.86-6.43,1.23-9.24-3.24-17.12,1.08-25.24,4-10.13,3.61-24.59-5.32-24.16-15.91.4-9.6-2.73-17.88-6.12-26.43-.9-2.28-.16-5.68.85-8.16,3.11-7.69,7.18-15,10-22.81,3.25-8.92,11.33-13.37,20.49-11.23,6.38,1.49,10.66,5.62,15.82,8.89,7.91,5,18,6.81,27.28,9.41,5.36,1.5,11,1.89,16.57,2.77-.09.57-.17,1.15-.26,1.72l-29.91-4.61c-.78,3.68-1.54,7.28-2.31,10.88l-1.52.89c-2.21-3-4.58-5.93-6.57-9.08s-3.38-6.47-5.29-9.58c-5.84-9.49-21.43-11.63-28-3.07-4.3,5.6-6.1,13-9.73,19.24-4.94,8.43-4.22,16.11.52,24.37,3.19,5.55,3.6,11.62,1.28,18.19-2.08,5.88,4.54,5.41,7.52,7.18s6.73,2.56,10.19,3.58a6.47,6.47,0,0,0,3.93.13c5.06-2,10.13-4.08,15-6.55,6.54-3.32,12.88-7,19.31-10.56C1134.49,623,1135,623.86,1135.41,624.74Z"/><path class="cls-174" d="M1082.11,596.15l4.43,10.75c-7.46,1.21-7.24-4.32-8.79-7.83-.1-.22,2.93-1.83,4.5-2.8Z"/><path class="cls-175" d="M1082.25,596.27c-3.74-5.65,1.42-8.41,3.22-13.25v12.59l-3.37.54Z"/><path class="cls-176" d="M922.17,541.89c-2.75-1.22-5.46-2.53-8.26-3.64-2.53-1-5.14-1.79-7.71-2.67.22-.64.45-1.29.68-1.94l16.09,6C922.71,540.41,922.44,541.15,922.17,541.89Z"/><path class="cls-177" d="M987,486.33l5.36,16.46c-8.25-3.82-3.58-11.27-7.12-15.68Z"/><path class="cls-178" d="M982.6,473.23c.13-.81.28-1.72.47-2.82h-6.56l.4-2.23,14.4,4.46c-.11.55-.23,1.09-.35,1.64Z"/><path class="cls-179" d="M817.08,500.39l13.49,11.08-1.4,1.77c-3-5.75-11.57-4.16-13.55-11.23Z"/><path class="cls-180" d="M833.7,423.53c4.46,5.37,4.47,8.11,0,16.7Z"/><path class="cls-181" d="M968.68,605.26c-1.91-5-6.07-9.52-2.46-16,2.09,5.08,4,9.76,5.93,14.41-1,.38-2.29.89-3.6,1.44Z"/><path class="cls-182" d="M956.33,381.63l-2.4,3.16c3.57,1.69,3.57,1.69-3.82,8.2-.93-5.67-1.82-11.08-2.7-16.5C949,380,950,384.11,956.33,381.63Z"/><path class="cls-183" d="M969.93,567.41c3.78,2.17,5.69,5.42,6.32,9.76.17,1.19,2.2,2,3.18,3.2,1.18,1.39,2.14,3,3.2,4.44l-1.54,1.26q-4.58-3.77-9.17-7.53c-.61-3.51-1.27-7.35-1.93-11.2Z"/><path class="cls-184" d="M1159.9,629.43s18.17-.89,29.18,4,77.07,21.21,96,14.28c0,0,45.24-8.37,52.24-30.37"/><path class="cls-185" d="M1112.79,565s22.36-5.8,25.47-7.21,23.62-11.2,54.35-6.92,38.68-4.29,38.68-4.29,44.09-8.3,66.57,1.24"/><path class="cls-186" d="M1159.9,579.37s101.57,5.86,128.26-3.33c0,0,41.25-6.88,46.47-6"/><path class="cls-187" d="M1089,605.26s30.3-11.18,63.32-4.55c0,0,53.51-.27,84.77,5.68l82.72-5.68"/></svg>